<svg id="Logo" xmlns="http://www.w3.org/2000/svg" width="256" height="256" viewBox="0 0 256 256"><title>rc-logo-only</title><path d="M46.4,113.4C11.6,101.4,25.3,85.8,66.1,78c35.5-6.9,86.8-6.9,122.6,0,41.3,7.8,56,23.4,21.9,35.4C169.5,127.9,88.4,127.9,46.4,113.4Zm113.1-12.5c15.5-4.4,12.8-10.9-4-14.6s-40-3.5-55.6,0S81,96.5,96.7,100.9,142.8,105.6,159.5,100.9Z" fill="#231f20"/><path d="M122,94.6c-3.3-.8-3.2-2.1,0-2.9a28.8,28.8,0,0,1,11.7,0c3.3.8,3.4,2.1.2,2.9A29.8,29.8,0,0,1,122,94.6Z" fill="#231f20"/><path d="M150,198.4a19.5,19.5,0,0,1-11.4-3.5c-4.9-3.6-7.6-9.3-7.6-16.1V168.1c0-12.8,9.8-25.2,23.4-29.6L256,102.3v9.8l-98.3,36.3h-.1c-9.2,3-16.2,11.4-16.2,19.7v10.7c0,3.4,1.2,6.1,3.3,7.7s5.9,2,9.7.8L256,152.7v9.8l-98.3,34.7A25.1,25.1,0,0,1,150,198.4Z" fill="#231f20"/><path d="M124.9,167.4v-4.8c0-9.5-7.1-19.4-16.2-22.5L.5,102.9v52.6l10.8,4.3V148.9l93.9,32.4c4.8,1.6,8.9,7.3,8.9,12.3v.4l10.8,3.9v-4.3a24.2,24.2,0,0,0-5.2-14.4C123,176.5,124.8,172.2,124.9,167.4ZM11.2,137.5V118l93.9,32.3c4.7,1.6,8.9,7.4,8.9,12.3v4.8a4.1,4.1,0,0,1-1.4,3.5c-.9.7-2.4.7-4,.2Z" fill="#231f20"/></svg>