<svg xmlns="http://www.w3.org/2000/svg" width="3.6in" height="3.6in" viewBox="0 0 256 256"><title>logo-breakdown</title><g id="Layer_1" data-name="Layer 1"><path d="M162,35A34.5,34.5,0,1,1,127.5.5,34.5,34.5,0,0,1,162,35ZM127.5,20.3A14.7,14.7,0,1,0,142.2,35,14.7,14.7,0,0,0,127.5,20.3Z" fill="#231f20"/><circle cx="127.5" cy="35" r="3.9" fill="#231f20"/></g><g id="Isolation_Mode" data-name="Isolation Mode"><polygon points="127.3 148.3 127.2 148.3 59 124.7 59.2 124 127.3 147.5 195.5 124 195.7 124.7 127.3 148.3" fill="#231f20"/><path d="M127.3,184.2h-.1L58.7,160.5V124H59l68.3-20.5h.2L196,124v36.5ZM59.5,160l67.8,23.4L195.2,160V124.6l-67.9-20.2L59.5,124.6Z" fill="#231f20"/><rect x="126.9" y="147.9" width="0.8" height="35.9" fill="#231f20"/><path d="M66.8,155.8c-2.8,0-5.1-3.8-5.1-8.6s2.3-8.7,5.1-8.7,5.1,3.8,5.1,8.7S69.7,155.8,66.8,155.8Zm0-16.5c-2.4,0-4.3,3.5-4.3,7.9s1.9,7.8,4.3,7.8,4.3-3.5,4.3-7.8S69.2,139.3,66.8,139.3Z" fill="#231f20"/><path d="M71.5,155.8H66.8V155h4.7c2.3,0,4.3-3.5,4.3-7.8s-2-7.9-4.3-7.9H66.8v-.8h4.7c2.8,0,5.1,3.8,5.1,8.7S74.3,155.8,71.5,155.8Z" fill="#231f20"/><path d="M80.2,148.3c-1.4,0-2.5-1.7-2.5-4s1.1-4,2.5-4,2.4,1.8,2.4,4S81.5,148.3,80.2,148.3Zm0-7.2c-.8,0-1.7,1.3-1.7,3.2s.9,3.2,1.7,3.2,1.6-1.3,1.6-3.2S80.9,141.1,80.2,141.1Z" fill="#231f20"/><path d="M82.2,148.3h-2v-.8h2c.8,0,1.6-1.3,1.6-3.2s-.8-3.2-1.6-3.2h-2v-.8h2c1.4,0,2.4,1.8,2.4,4S83.6,148.3,82.2,148.3Z" fill="#231f20"/><path d="M87.2,150.3c-1.4,0-2.5-1.7-2.5-4s1.1-4,2.5-4,2.4,1.8,2.4,4S88.5,150.3,87.2,150.3Zm0-7.2c-.8,0-1.7,1.3-1.7,3.2s.9,3.2,1.7,3.2,1.6-1.3,1.6-3.2S87.9,143.1,87.2,143.1Z" fill="#231f20"/><path d="M89.2,150.3h-2v-.8h2c.8,0,1.6-1.3,1.6-3.2s-.8-3.2-1.6-3.2h-2v-.8h2c1.4,0,2.4,1.8,2.4,4S90.6,150.3,89.2,150.3Z" fill="#231f20"/><path d="M94.1,152.3c-1.3,0-2.4-1.7-2.4-4s1.1-4,2.4-4,2.5,1.8,2.5,4S95.5,152.3,94.1,152.3Zm0-7.2c-.7,0-1.6,1.4-1.6,3.2s.9,3.2,1.6,3.2,1.7-1.3,1.7-3.2S94.9,145.1,94.1,145.1Z" fill="#231f20"/><path d="M96.2,152.3H94.1v-.8h2.1c.7,0,1.6-1.3,1.6-3.2s-.9-3.2-1.6-3.2H94.1v-.8h2.1c1.3,0,2.4,1.8,2.4,4S97.5,152.3,96.2,152.3Z" fill="#231f20"/><path d="M101.1,154.3c-1.3,0-2.4-1.7-2.4-4s1.1-4,2.4-4,2.5,1.8,2.5,4S102.5,154.3,101.1,154.3Zm0-7.1c-.8,0-1.6,1.3-1.6,3.1s.8,3.2,1.6,3.2,1.6-1.3,1.6-3.2S101.9,147.2,101.1,147.2Z" fill="#231f20"/><path d="M103.2,154.3h-2.1v-.8h2.1c.7,0,1.6-1.3,1.6-3.2s-.9-3.1-1.6-3.1h-2.1v-.9h2.1c1.3,0,2.4,1.8,2.4,4S104.5,154.3,103.2,154.3Z" fill="#231f20"/><path d="M108.1,156.4c-1.4,0-2.4-1.8-2.4-4s1-4,2.4-4,2.4,1.7,2.4,4S109.5,156.4,108.1,156.4Zm0-7.2c-.8,0-1.6,1.3-1.6,3.2s.8,3.2,1.6,3.2,1.6-1.4,1.6-3.2S108.9,149.2,108.1,149.2Z" fill="#231f20"/><path d="M110.1,156.4h-2v-.8h2c.8,0,1.7-1.4,1.7-3.2s-.9-3.2-1.7-3.2h-2v-.8h2c1.4,0,2.5,1.7,2.5,4S111.5,156.4,110.1,156.4Z" fill="#231f20"/><path d="M111,170.8,77.7,159.3V148.2L111,159.8ZM78.5,158.7l31.7,11v-9.4l-31.7-11Z" fill="#231f20"/><path d="M178.7,254.7h-35c-9.8,0-17.9-6.7-17.9-15v-6.1c0-8.3,8.1-15,17.9-15h35v8h-35c-5.3,0-9.8,3.2-9.8,7v6.1c0,3.8,4.5,7,9.8,7h35Z" fill="#231f20"/><path d="M80.1,252.9H72V218.6h37.5c8.9,0,15.8,5,15.8,11.4v4.1c0,6.4-6.9,11.4-15.8,11.4H80.1Zm0-15.5h29.4c4.8,0,7.8-2.2,7.8-3.3V230c0-1.2-3-3.4-7.8-3.4H80.1Z" fill="#231f20"/><path d="M125.3,253.7h-8v-4.9c0-1.1-3-3.3-7.8-3.3H76v-8.1h33.5c8.9,0,15.8,5,15.8,11.4Z" fill="#231f20"/><rect x="115.7" y="199.2" width="23.7" height="8.04" fill="#231f20"/><rect x="123.5" y="191.3" width="8" height="23.71" fill="#231f20"/><rect x="115.7" y="82.7" width="23.7" height="8.04" fill="#231f20"/><rect x="123.5" y="74.8" width="8" height="23.71" fill="#231f20"/></g></svg>