<svg id="Layer_1" data-name="Layer 1" xmlns="http://www.w3.org/2000/svg" width="820" height="417" viewBox="0 0 820 417"><title>404</title><path d="M170.7,2H205L160.4,162.1H127.3L102.1,57.2,76.9,162.1H43.8L.1,2H34.9L60.6,103.1,86.5,2h32.6l25,102.8Z"/><path d="M285.7,51h30.5V162.1H285.7V146.8C275.4,160,263.4,166,247,166c-31.2,0-53.5-24.3-53.5-58.1S217,47.1,249.4,47.1c15.2,0,25.5,5.3,36.3,18Zm-59.5,56.4c0,19.4,12.7,34.1,29.2,34.1s30.8-15.9,30.8-35.1-12.5-33.6-30.5-33.6S226.2,87,226.2,107.4Z"/><path d="M359.1,19.5a16.4,16.4,0,0,1-16.8,16.6c-9.8,0-17-7.2-17-16.8s7.2-17,17-17S359.1,9.5,359.1,19.5Zm-1.7,142.6H327V51h30.4Z"/><path d="M410,129.5c0,5.3,1.9,6.7,8.6,7.2h5.3v25.4H399.7c-14.9-.5-20.4-6.5-20.2-21.1V76.2H366.8V50.5h12.7V20.7H410V50.5h13.9V76.2H410Z"/><path d="M44.5,346l-9.6,27.6H.1l55.2-160h41l54.7,160H115L105.9,346Zm30.7-93.1L52.9,319.2H97.3Z"/><path d="M229,326.8V329c0,10.8,9.4,18.7,21.9,18.7s21.1-7.4,21.1-17a15.7,15.7,0,0,0-6.5-12.7c-4.1-3.2-6.9-4.4-19.4-8.9-35.1-12.5-47.5-25.7-47.5-50.2,0-29,21.3-48.5,52.8-48.5s51.3,18.3,54,49H272.2c-1.2-13.4-7.9-19.9-20.8-19.9s-19.7,6.7-19.7,16.8c0,6.5,3.3,11.5,9.8,15.1,4.3,2.4,7,3.6,18.7,7.9,17.6,6.5,26.4,11.1,33.4,17.8s12.7,18.7,12.7,30.9c0,29.3-22.1,48.8-55.2,48.8s-54.2-19.2-54-50Z"/><path d="M345.7,325.4c2.6,15.4,13.9,25,29,25,11.3,0,20.9-5.6,25.7-14.4l28.1,7.6c-11.1,21.6-30.5,33.9-54,33.9-35.3,0-60.5-25-60.5-59.5s24.2-59.3,58.6-59.3,60.2,24.9,60.2,60.7l-.2,6Zm55.7-17.5c-2.7-14.7-13.2-23.5-28.4-23.5s-24.4,8.4-27.3,23.5Z"/><path d="M544.2,360.9c-12.8,11.5-26,16.6-42.8,16.6-33.8,0-58.8-25-58.8-58.8s24.5-60,59.1-60c16.5,0,30.2,5.7,44.4,18.5l-20.4,18.4c-6.7-6.7-13.9-9.8-22.8-9.8-16.8,0-29.3,13.7-29.3,31.9s12.7,32.7,30.5,32.7c7.9,0,13.7-2.4,21.6-9.4Z"/><path d="M596.2,359.5c0,9.8-7.6,17.3-17.7,17.3s-17.8-7.5-17.8-17.8,7.5-17.5,18-17.5S596.2,348.9,596.2,359.5Z"/><path d="M649.3,359.5c0,9.8-7.7,17.3-17.8,17.3s-17.7-7.5-17.7-17.8,7.4-17.5,18-17.5S649.3,348.9,649.3,359.5Z"/><path d="M702.3,359.5c0,9.8-7.7,17.3-17.8,17.3s-17.7-7.5-17.7-17.8,7.4-17.5,18-17.5S702.3,348.9,702.3,359.5Z"/><rect x="0.1" y="383.5" width="703.4" height="26.73"/></svg>