<svg id="Layer_1" data-name="Layer 1" xmlns="http://www.w3.org/2000/svg" width="820" height="417" viewBox="0 0 820 417"><title>about-title</title><polygon points="190.6 416.6 -0.3 416.6 -0.3 389.9 200.6 389.9 190.6 416.6"/><polygon points="600.2 416.6 244.1 416.6 254.1 389.9 600.2 389.9 600.2 416.6"/><path d="M96.7,3.7h-41L.5,163.8H35.3l9.6-27.6h61.4l9.1,27.6h36ZM53.3,109.4,75.6,43.1l22.1,66.3Z"/><path d="M223.9,48.9c-15.1,0-25.4,5-36,17.3V3.7H157.4V163.8h30.5V149.4c9.9,13,20.7,18.3,37.5,18.3,32.4,0,54.4-24,54.4-58.8S256.6,48.9,223.9,48.9ZM217.2,143c-17.5,0-29.8-14-29.8-33.9s13.5-34.5,30.5-34.5,29.5,14.8,29.5,34.5S235,143,217.2,143Z"/><path d="M346.8,48.9c-36,0-60.7,24.2-60.7,59.5s25.2,59.3,60.2,59.3S407,142,407,109.4C407,74.3,381.8,48.9,346.8,48.9Zm-.2,91.7c-17.8,0-29.8-13-29.8-32.2s12-32.2,30-32.2,29.5,12.5,29.5,32.7C376.3,127.4,364.1,140.6,346.6,140.6Z"/><path d="M480,52.7V123c0,11.8-6.7,19-18,19s-18.5-8.4-18.5-20.9V52.7H413V123c0,14.7,3.9,25.2,11.8,32.4s21.8,12.3,37.2,12.3,27.1-4.1,36-11.5,12.5-16.8,12.5-33.2V52.7Z"/><path d="M574.8,77.9V52.2H560.9V22.5H530.4V52.2H517.7V77.9h12.7v64.8c-.2,14.7,5.3,20.7,20.2,21.1h24.2V138.4h-5.3c-6.7-.5-8.6-1.9-8.6-7.2V77.9Z"/><path d="M135.4,215.3l-48,97.2L39.6,215.3H2.4V375.4H35.3V275.5L87.4,380.2l52.3-104.7v99.9h32.9V215.3Z"/><path d="M259.9,264.2l-25.9,66-22.6-66H179l38.9,108.5L200.6,417h32.6l59.1-152.8Z"/><path d="M340.8,307.7c-15.4-4.8-15.6-4.8-19-7.5s-3.1-4.3-3.1-7.2c0-6,4.8-10,12.3-10s14.1,4.8,14.1,11.5v1.9h28.8c-.7-22.6-16.1-36-41.5-36s-43,14.2-43,35.3c0,17.5,10.8,28.3,34.8,35.5,16.4,5,20.7,8.2,20.7,14.9s-5.1,10.5-12.3,10.5c-8.8,0-13.2-4.3-14.6-13.9H288.7c1.2,23.1,17.3,36.5,43.7,36.5s43.2-14.4,43.2-36C375.6,325.2,365.8,315.4,340.8,307.7Z"/><path d="M500.2,321.1c0-35.7-24.8-60.7-60.3-60.7s-58.5,24.5-58.5,59.3,25.2,59.5,60.4,59.5c23.6,0,43-12.2,54-33.8l-28-7.7c-4.8,8.9-14.4,14.4-25.7,14.4-15.1,0-26.4-9.6-29.1-25h86.9ZM413,309.6c2.9-15.1,12.8-23.5,27.4-23.5s25.7,8.9,28.3,23.5Z"/><path d="M506.6,215.3V375.4h30.5V215.3Z"/><path d="M600.2,243.4V215.3c-30.4-1-45.1,12.9-45.1,42.7v6.2H542.9v25.7h12.2v85.5h30.5V289.9h14.6V264.2H585.6V258C585.6,248.6,589.7,244.6,600.2,243.4Z"/></svg>