<svg id="Layer_1" data-name="Layer 1" xmlns="http://www.w3.org/2000/svg" width="820" height="417" viewBox="0 0 820 417"><title>anco-title</title><rect x="0.9" y="383.5" width="473.8" height="26.73"/><path d="M88.1,134.2v27.1H1.7V1.2H34.6v133Z"/><path d="M149.8,50.2h32.4L119.5,212H86.9l20.9-53.3L68.9,50.2h32.4l22.5,66Z"/><path d="M217.9,50.2V66.5c3.1-8.1,5.3-11.5,9.9-14.9a32.1,32.1,0,0,1,18-5.2,28.8,28.8,0,0,1,3.6.2V77.8c-2.4-.2-4.8-.5-6.5-.5-8.4,0-16.1,3.9-20.4,10.1s-4.6,9.8-4.6,20.4v53.5H187.4V50.2Z"/><path d="M288.5,18.7a16.4,16.4,0,0,1-16.8,16.6c-9.9,0-17.1-7.2-17.1-16.8s7.2-17,17.1-17S288.5,8.7,288.5,18.7Zm-1.7,142.6H256.3V50.2h30.5Z"/><path d="M397,148.6c-12.8,11.5-26,16.6-42.8,16.6-33.8,0-58.8-25-58.8-58.8s24.5-60,59.1-60c16.5,0,30.2,5.7,44.4,18.4L378.5,83.3c-6.7-6.7-13.9-9.8-22.8-9.8-16.8,0-29.3,13.7-29.3,31.9S339.1,138,356.9,138c7.9,0,13.7-2.4,21.6-9.3Z"/><path d="M53.3,212.8c19.7,0,32.4,2.8,40.8,9.1s15.3,19.7,15.3,33.8c0,11.1-3.3,20.2-10,27.4-4.6,4.5-8.2,6.7-16.8,9.6,9.6,2.1,13.9,4.1,18.9,8.6C109,308,113,317.9,113,330.1c0,14.9-6.2,28.1-16.5,35.1-8.4,5.5-18.3,7.7-35.8,7.7H1.7V212.8ZM34.6,280.7H47.8c19.4,0,28.5-7,28.5-21.9,0-8.1-3.8-15.1-9.6-18s-11.3-3.1-20.6-3.1H34.6Zm0,67.9h16c11.3,0,16.6-.9,21.4-4.3s7.9-9.4,7.9-17.1-3.1-14.6-9.1-18.2-10.1-3.8-22.1-3.8H34.6Z"/><path d="M241.4,318.4c0,32.6-26.6,58.3-60.7,58.3s-60.2-24.7-60.2-59.3,24.7-59.5,60.7-59.5S241.4,283.3,241.4,318.4Zm-90.2-1c0,19.2,12,32.2,29.8,32.2s29.7-13.2,29.7-31.7c0-20.2-11.3-32.7-29.5-32.7S151.2,298,151.2,317.4Z"/><path d="M368.2,318.4c0,32.6-26.7,58.3-60.8,58.3s-60.2-24.7-60.2-59.3,24.7-59.5,60.7-59.5S368.2,283.3,368.2,318.4Zm-90.3-1c0,19.2,12,32.2,29.8,32.2s29.7-13.2,29.7-31.7c0-20.2-11.2-32.7-29.5-32.7S277.9,298,277.9,317.4Z"/><path d="M406.8,372.9H376.3V212.8h30.5v91.6l31-42.7H473L435.4,315,473,372.9H437.8l-31-46.1Z"/></svg>