<svg id="Layer_1" data-name="Layer 1" xmlns="http://www.w3.org/2000/svg" width="976" height="429" viewBox="0 0 976 429"><title>anco-title</title><rect x="-0.4" y="389.5" width="473.8" height="26.73"/><path d="M86.8,140.2v27.1H.4V7.2H33.3v133Z"/><path d="M148.5,56.2h32.4L118.2,218H85.6l20.9-53.3L67.6,56.2H100l22.5,66Z"/><path d="M216.6,56.2V72.5c3.1-8.1,5.3-11.5,9.9-14.9a32.1,32.1,0,0,1,18-5.2,28.8,28.8,0,0,1,3.6.2V83.8c-2.4-.2-4.8-.5-6.5-.5-8.4,0-16.1,3.9-20.4,10.1s-4.6,9.8-4.6,20.4v53.5H186.1V56.2Z"/><path d="M287.2,24.7a16.4,16.4,0,0,1-16.8,16.6c-9.9,0-17.1-7.2-17.1-16.8s7.2-17,17.1-17S287.2,14.7,287.2,24.7Zm-1.7,142.6H255V56.2h30.5Z"/><path d="M395.7,154.6c-12.8,11.5-26,16.6-42.8,16.6-33.8,0-58.8-25-58.8-58.8s24.5-60,59.1-60c16.5,0,30.2,5.7,44.4,18.4L377.2,89.3c-6.7-6.7-13.9-9.8-22.8-9.8-16.8,0-29.3,13.7-29.3,31.9S337.8,144,355.6,144c7.9,0,13.7-2.4,21.6-9.3Z"/><path d="M52,218.8c19.7,0,32.4,2.8,40.8,9.1s15.4,19.7,15.4,33.8c0,11.1-3.4,20.2-10.1,27.4-4.6,4.5-8.2,6.7-16.8,9.6,9.6,2.1,13.9,4.1,18.9,8.6,7.5,6.7,11.5,16.6,11.5,28.8,0,14.9-6.2,28.1-16.5,35.1-8.4,5.5-18.3,7.7-35.8,7.7H.4V218.8ZM33.3,286.7H46.5c19.4,0,28.5-7,28.5-21.9,0-8.1-3.8-15.1-9.6-18s-11.3-3.1-20.6-3.1H33.3Zm0,67.9h16c11.3,0,16.6-.9,21.4-4.3s7.9-9.4,7.9-17.1-3.1-14.6-9.1-18.2-10.1-3.8-22.1-3.8H33.3Z"/><path d="M240.1,324.4c0,32.6-26.6,58.3-60.7,58.3s-60.2-24.7-60.2-59.3,24.7-59.5,60.7-59.5S240.1,289.3,240.1,324.4Zm-90.2-1c0,19.2,12,32.2,29.8,32.2s29.7-13.2,29.7-31.7c0-20.2-11.3-32.7-29.5-32.7S149.9,304,149.9,323.4Z"/><path d="M366.9,324.4c0,32.6-26.7,58.3-60.8,58.3s-60.2-24.7-60.2-59.3,24.7-59.5,60.7-59.5S366.9,289.3,366.9,324.4Zm-90.3-1c0,19.2,12,32.2,29.8,32.2s29.7-13.2,29.7-31.7c0-20.2-11.2-32.7-29.5-32.7S276.6,304,276.6,323.4Z"/><path d="M405.5,378.9H375V218.8h30.5v91.6l31-42.7h35.2L434.1,321l37.6,57.9H436.5l-31-46.1Z"/></svg>