<svg xmlns="http://www.w3.org/2000/svg" width="493" height="429" viewBox="0 0 493 429"><path d="M7 389.5h473.8v26.73H7zm87.2-249.3v27.1H7.8V7.2h32.9v133z"/><path d="M155.9 56.2h32.4L125.6 218H93l20.9-53.3L75 56.2h32.4l22.6 66zm68.1 0v16.3c3.1-8.1 5.3-11.5 9.9-14.9a32.3 32.3 0 0 1 18-5.2 28.8 28.8 0 0 1 3.6.2v31.2c-2.4-.2-4.8-.5-6.5-.5-8.4 0-16.1 3.9-20.4 10.1s-4.6 9.8-4.6 20.4v53.5h-30.5V56.2zm70.6-31.5a16.4 16.4 0 0 1-16.8 16.6c-9.9 0-17.1-7.2-17.1-16.8s7.2-17 17.1-17 16.8 7.2 16.8 17.2zm-1.7 142.6h-30.5V56.2h30.5zm110.2-12.7c-12.8 11.5-26 16.6-42.8 16.6-33.8 0-58.8-25-58.8-58.8s24.5-60 59.1-60c16.5 0 30.2 5.7 44.4 18.4l-20.4 18.5c-6.7-6.7-13.9-9.8-22.8-9.8-16.8 0-29.3 13.7-29.3 31.9S345.2 144 363 144c7.9 0 13.7-2.4 21.6-9.3zM59.4 218.8c19.7 0 32.4 2.8 40.8 9.1s15.4 19.7 15.4 33.8c0 11.1-3.4 20.2-10.1 27.4-4.6 4.5-8.2 6.7-16.8 9.6 9.6 2.1 13.9 4.1 18.9 8.6 7.5 6.7 11.6 16.6 11.6 28.8 0 14.9-6.3 28.1-16.6 35.1-8.4 5.5-18.2 7.7-35.8 7.7h-59V218.8zm-18.7 67.9h13.2c19.4 0 28.5-7 28.5-21.9 0-8.1-3.8-15.1-9.6-18s-11.2-3.1-20.6-3.1H40.7zm0 67.9h16.1c11.2 0 16.5-.9 21.3-4.3s7.9-9.4 7.9-17.1-3.1-14.6-9.1-18.2-10.1-3.8-22.1-3.8H40.7zm206.9-30.2c0 32.6-26.7 58.3-60.8 58.3s-60.2-24.7-60.2-59.3 24.7-59.5 60.7-59.5 60.3 25.4 60.3 60.5zm-90.3-1c0 19.2 12 32.2 29.8 32.2s29.7-13.2 29.7-31.7c0-20.2-11.2-32.7-29.5-32.7s-30 12.8-30 32.2zm217 1c0 32.6-26.7 58.3-60.7 58.3s-60.3-24.7-60.3-59.3 24.7-59.5 60.7-59.5 60.3 25.4 60.3 60.5zm-90.3-1c0 19.2 12 32.2 29.8 32.2s29.8-13.2 29.8-31.7c0-20.2-11.3-32.7-29.6-32.7s-30 12.8-30 32.2zm128.9 55.5h-30.5V218.8h30.5v91.6l31-42.7h35.2L441.5 321l37.6 57.9h-35.2l-31-46.1z"/></svg>