<svg id="Layer_1" data-name="Layer 1" xmlns="http://www.w3.org/2000/svg" width="558.7" height="429" viewBox="0 0 558.7 429"><title>hmb-title</title><rect y="389.5" width="286.7" height="26.73"/><path d="M33.2,73.5H89.3v26.9H33.2v40H89.3v26.9H.3V7.2h89V34.1H33.2Z"/><path d="M131.3,56.2V72.5c3.1-8.1,5.3-11.5,9.9-14.9a32.1,32.1,0,0,1,18-5.2,28.8,28.8,0,0,1,3.6.2V83.8c-2.4-.2-4.8-.5-6.5-.5-8.4,0-16.1,3.9-20.4,10.1s-4.6,9.8-4.6,20.4v53.5H100.8V56.2Z"/><path d="M226.1,88.4v-2c0-6.7-6-11.5-14.1-11.5S199.7,79,199.7,85c0,2.9,1.2,5.8,3.1,7.2s3.6,2.6,19,7.4c25,7.7,34.8,17.6,34.8,35.6,0,21.6-17.3,36-43.2,36s-42.5-13.5-43.7-36.5H199c1.4,9.6,5.8,13.9,14.6,13.9,7.2,0,12.3-4.3,12.3-10.6s-4.3-9.8-20.7-14.8c-24-7.2-34.8-18-34.8-35.6,0-21.1,17.1-35.2,43-35.2s40.8,13.4,41.5,36Z"/><path d="M354.3,56.2h30.5V167.3H354.3V152c-10.3,13.2-22.3,19.2-38.7,19.2-31.2,0-53.5-24.3-53.5-58.1S285.6,52.4,318,52.4c15.2,0,25.5,5.2,36.3,18Zm-59.5,56.4c0,19.4,12.7,34.1,29.2,34.1s30.8-15.9,30.8-35.1S342.3,78,324.3,78,294.8,92.2,294.8,112.6Z"/><path d="M433.5,134.7c0,5.3,1.9,6.7,8.6,7.2h5.3v25.4H423.2c-14.9-.5-20.4-6.5-20.2-21.1V81.4H390.3V55.7H403V25.9h30.5V55.7h13.9V81.4H433.5Z"/><path d="M541.5,141.6v25.7h-91l46.6-85.4H454.8V56.2h90l-46.3,85.4Z"/><path d="M33.2,285H89.3v26.9H33.2V352H89.3v26.9H.3V218.8h89v26.8H33.2Z"/><path d="M131.3,267.7V284c3.1-8.1,5.3-11.5,9.9-14.8a31.3,31.3,0,0,1,18-5.3,28.8,28.8,0,0,1,3.6.2v31.2c-2.4-.2-4.8-.5-6.5-.5-8.4,0-16.1,3.9-20.4,10.1s-4.6,9.9-4.6,20.4v53.6H100.8V267.7Z"/><path d="M255.9,267.7h30.5V378.9H255.9V363.5c-10.3,13.2-22.3,19.2-38.7,19.2-31.2,0-53.5-24.3-53.5-58.1s23.5-60.7,55.9-60.7c15.2,0,25.5,5.3,36.3,18Zm-59.5,56.4c0,19.5,12.7,34.1,29.2,34.1s30.8-15.8,30.8-35-12.5-33.6-30.5-33.6S196.4,303.7,196.4,324.1Z"/></svg>