<svg id="Layer_1" data-name="Layer 1" xmlns="http://www.w3.org/2000/svg" width="976" height="429" viewBox="0 0 976 429"><title>hmb-title</title><rect x="-0.1" y="389.5" width="286.7" height="26.73"/><path d="M33.1,73.5H89.2v26.9H33.1v40H89.2v26.9H.2V7.2h89V34.1H33.1Z"/><path d="M131.2,56.2V72.5c3.1-8.1,5.3-11.5,9.9-14.9a32.1,32.1,0,0,1,18-5.2,28.8,28.8,0,0,1,3.6.2V83.8c-2.4-.2-4.8-.5-6.5-.5-8.4,0-16.1,3.9-20.4,10.1s-4.6,9.8-4.6,20.4v53.5H100.7V56.2Z"/><path d="M226,88.4v-2c0-6.7-6-11.5-14.1-11.5S199.6,79,199.6,85c0,2.9,1.2,5.8,3.1,7.2,3.4,2.6,3.6,2.6,19,7.4,25,7.7,34.8,17.6,34.8,35.6,0,21.6-17.3,36-43.2,36s-42.5-13.5-43.7-36.5h29.3c1.4,9.6,5.8,13.9,14.6,13.9,7.2,0,12.3-4.3,12.3-10.6s-4.3-9.8-20.7-14.8c-24-7.2-34.8-18-34.8-35.6,0-21.1,17.1-35.2,43-35.2s40.8,13.4,41.5,36Z"/><path d="M354.2,56.2h30.5V167.3H354.2V152c-10.3,13.2-22.3,19.2-38.7,19.2-31.2,0-53.5-24.3-53.5-58.1s23.5-60.7,55.9-60.7c15.2,0,25.5,5.2,36.3,18Zm-59.5,56.4c0,19.4,12.7,34.1,29.2,34.1s30.8-15.9,30.8-35.1S342.2,78,324.2,78,294.7,92.2,294.7,112.6Z"/><path d="M433.4,134.7c0,5.3,1.9,6.7,8.6,7.2h5.3v25.4H423.1c-14.9-.5-20.4-6.5-20.2-21.1V81.4H390.2V55.7h12.7V25.9h30.5V55.7h13.9V81.4H433.4Z"/><path d="M541.4,141.6v25.7h-91L497,81.9H454.7V56.2h90l-46.3,85.4Z"/><path d="M33.1,285H89.2v26.9H33.1V352H89.2v26.9H.2V218.8h89v26.8H33.1Z"/><path d="M131.2,267.7V284c3.1-8.1,5.3-11.5,9.9-14.8a31.3,31.3,0,0,1,18-5.3,28.8,28.8,0,0,1,3.6.2v31.2c-2.4-.2-4.8-.5-6.5-.5-8.4,0-16.1,3.9-20.4,10.1s-4.6,9.9-4.6,20.4v53.6H100.7V267.7Z"/><path d="M255.8,267.7h30.5V378.9H255.8V363.5c-10.3,13.2-22.3,19.2-38.7,19.2-31.2,0-53.5-24.3-53.5-58.1s23.5-60.7,55.9-60.7c15.2,0,25.5,5.3,36.3,18Zm-59.5,56.4c0,19.5,12.7,34.1,29.2,34.1s30.8-15.8,30.8-35-12.5-33.6-30.5-33.6S196.3,303.7,196.3,324.1Z"/></svg>