<svg id="Layer_1" data-name="Layer 1" xmlns="http://www.w3.org/2000/svg" width="820" height="417" viewBox="0 0 820 417"><title>hmb-title</title><path d="M45.8,133.7l-9.6,27.6H1.4L56.6,1.2h41l54.7,160.1h-36l-9.1-27.6ZM76.5,40.6,54.2,106.8H98.6Z"/><path d="M188.6,50.2V66.5c3.1-8.1,5.2-11.5,9.8-14.9a32.3,32.3,0,0,1,18-5.2,28.8,28.8,0,0,1,3.6.2V77.8c-2.4-.2-4.8-.5-6.5-.5-8.4,0-16.1,3.9-20.4,10.1s-4.5,9.8-4.5,20.4v53.5H158.1V50.2Z"/><path d="M269.2,128.7c0,5.3,1.9,6.7,8.6,7.2h5.3v25.4H258.9c-14.9-.5-20.4-6.5-20.2-21.1V75.4H226V49.7h12.7V19.9h30.5V49.7h13.9V75.4H269.2Z"/><path d="M8.1,212.8H53.4c26,0,43.5,5.2,57.6,17.7,16.4,14.4,25.2,35.3,25.2,60.5s-9.1,48.7-25.4,63.4c-13.2,12-32.4,18.4-55.4,18.4H8.1ZM41,345.7h6.2c17.5,0,28.3-3.1,37.7-11,11.5-9.9,18-25,18-42.7,0-32-19.5-52.6-49.9-52.6H41Z"/><path d="M173.2,230.3c0,9.3-7.2,16.5-16.8,16.5s-17-7.2-17-16.8,7.2-17,17-17S173.2,220.2,173.2,230.3Zm-1.7,142.5H141V261.7h30.5Z"/><path d="M213,261.7V278c3.2-8.1,5.3-11.5,9.9-14.8a31.6,31.6,0,0,1,18-5.3,28.8,28.8,0,0,1,3.6.2v31.2c-2.4-.2-4.8-.5-6.5-.5-8.4,0-16.1,3.9-20.4,10.1s-4.6,9.9-4.6,20.4v53.5H182.6V261.7Z"/><path d="M277.4,324.6c2.6,15.4,13.9,25,29,25,11.3,0,20.9-5.6,25.7-14.4l28.1,7.6c-11.1,21.6-30.5,33.9-54,33.9-35.3,0-60.5-25-60.5-59.5s24.2-59.3,58.5-59.3,60.3,24.9,60.3,60.7l-.3,6ZM333,307.1c-2.6-14.7-13.2-23.5-28.3-23.5s-24.5,8.4-27.3,23.5Z"/><path d="M471,360.1c-12.7,11.5-25.9,16.6-42.7,16.6-33.8,0-58.8-25-58.8-58.8s24.5-60,59.1-60c16.5,0,30.2,5.7,44.4,18.5l-20.4,18.4c-6.8-6.7-14-9.8-22.8-9.8-16.8,0-29.3,13.7-29.3,31.9s12.7,32.7,30.5,32.7c7.9,0,13.6-2.4,21.6-9.4Z"/><path d="M520.9,340.2c0,5.3,2,6.7,8.7,7.2h5.3v25.4H510.6c-14.9-.4-20.4-6.4-20.1-21.1V286.9H477.7V261.2h12.8V231.5h30.4v29.7h14v25.7h-14Z"/><path d="M575.4,230.3c0,9.3-7.2,16.5-16.8,16.5s-17-7.2-17-16.8,7.2-17,17-17S575.4,220.2,575.4,230.3Zm-1.7,142.5H543.3V261.7h30.4Z"/><path d="M703.3,318.4c0,32.6-26.6,58.3-60.7,58.3s-60.2-24.7-60.2-59.3,24.7-59.5,60.7-59.5S703.3,283.3,703.3,318.4Zm-90.2-1c0,19.2,12,32.2,29.8,32.2s29.7-13.2,29.7-31.7c0-20.2-11.3-32.7-29.5-32.7S613.1,298,613.1,317.4Z"/><path d="M742,261.7v13.7c8.1-12.7,16.3-17.5,30.2-17.5,10.6,0,20.7,3.8,27.4,10.3s9.8,16.1,9.8,34.3v70.3H778.9V304c0-6.3-.7-9.9-2.6-13s-8.6-7.4-14.6-7.4c-11.8,0-19.7,8.8-19.7,21.8v67.4H711.5V261.7Z"/><rect x="0.8" y="383.5" width="808.5" height="26.73"/></svg>