<svg xmlns="http://www.w3.org/2000/svg" width="558.7" height="429" viewBox="0 0 558.7 429"><path d="M7 389.5h286.7v26.73H7zm33.2-316h56.1v26.9H40.2v40h56.1v26.9h-89V7.2h89v26.9H40.2zm98.1-17.3v16.3c3.1-8.1 5.3-11.5 9.9-14.9a32.1 32.1 0 0 1 18-5.2 28.8 28.8 0 0 1 3.6.2v31.2c-2.4-.2-4.8-.5-6.5-.5-8.4 0-16.1 3.9-20.4 10.1s-4.6 9.8-4.6 20.4v53.5h-30.5V56.2zm94.8 32.2v-2c0-6.7-6-11.5-14.1-11.5S206.7 79 206.7 85c0 2.9 1.2 5.8 3.1 7.2s3.6 2.6 19 7.4c25 7.7 34.8 17.6 34.8 35.6 0 21.6-17.3 36-43.2 36s-42.5-13.5-43.7-36.5H206c1.4 9.6 5.8 13.9 14.6 13.9 7.2 0 12.3-4.3 12.3-10.6s-4.3-9.8-20.7-14.8c-24-7.2-34.8-18-34.8-35.6 0-21.1 17.1-35.2 43-35.2s40.8 13.4 41.5 36zm128.2-32.2h30.5v111.1h-30.5V152c-10.3 13.2-22.3 19.2-38.7 19.2-31.2 0-53.5-24.3-53.5-58.1s23.5-60.7 55.9-60.7c15.2 0 25.5 5.2 36.3 18zm-59.5 56.4c0 19.4 12.7 34.1 29.2 34.1s30.8-15.9 30.8-35.1S349.3 78 331.3 78s-29.5 14.2-29.5 34.6zm138.7 22.1c0 5.3 1.9 6.7 8.6 7.2h5.3v25.4h-24.2c-14.9-.5-20.4-6.5-20.2-21.1V81.4h-12.7V55.7H410V25.9h30.5v29.8h13.9v25.7h-13.9zm108 6.9v25.7h-91l46.6-85.4h-42.3V56.2h90l-46.3 85.4zM40.2 285h56.1v26.9H40.2V352h56.1v26.9h-89V218.8h89v26.8H40.2zm98.1-17.3V284c3.1-8.1 5.3-11.5 9.9-14.8a31.3 31.3 0 0 1 18-5.3 28.8 28.8 0 0 1 3.6.2v31.2c-2.4-.2-4.8-.5-6.5-.5-8.4 0-16.1 3.9-20.4 10.1s-4.6 9.9-4.6 20.4v53.6h-30.5V267.7zm124.6 0h30.5v111.2h-30.5v-15.4c-10.3 13.2-22.3 19.2-38.7 19.2-31.2 0-53.5-24.3-53.5-58.1s23.5-60.7 55.9-60.7c15.2 0 25.5 5.3 36.3 18zm-59.5 56.4c0 19.5 12.7 34.1 29.2 34.1s30.8-15.8 30.8-35-12.5-33.6-30.5-33.6-29.5 14.1-29.5 34.5z"/></svg>