<svg id="Layer_1" data-name="Layer 1" xmlns="http://www.w3.org/2000/svg" width="820" height="417" viewBox="0 0 820 417"><title>home-title</title><rect y="389.4" width="726.3" height="26.73"/><path d="M139.1,142.1c-18.5,17.3-35.8,24.2-59.5,24.2s-43.2-8.1-57.4-24S.6,105.6.6,83.5C.6,34.8,33.7,0,80,0c24.8,0,41.6,7,60.5,25.4L119.2,47c-13-11.7-24-16.5-37.5-16.5C53.6,30.5,34,52.1,34,82.8s20.6,53,49.4,53c14.6,0,25.9-5,35.8-16.3Z"/><path d="M180.1,64.1c9.4-11.1,18.5-15.9,30.5-15.9,9.6,0,20.2,4.1,26.6,10.4s9.9,15.3,9.9,31.4v73.2H216.6V94.3c0-12.5-6.5-20.4-16.6-20.4a19,19,0,0,0-13.6,5.5c-4.8,4.6-6.3,8.9-6.3,17.6v66.2H149.6V3.1h30.5Z"/><path d="M287.9,52.1V68.4c3.1-8.2,5.3-11.5,9.8-14.9a32.4,32.4,0,0,1,18-5.3,19.3,19.3,0,0,1,3.6.3V79.7a57.4,57.4,0,0,0-6.5-.5,24.7,24.7,0,0,0-20.4,10.1c-3.6,5-4.5,9.8-4.5,20.4v53.5H257.4V52.1Z"/><path d="M358.7,20.6a16.4,16.4,0,0,1-16.8,16.6c-9.9,0-17.1-7.2-17.1-16.8s7.2-17,17.1-17S358.7,10.6,358.7,20.6Z"/><rect x="326.5" y="52.1" width="30.5" height="111.12"/><path d="M420.4,84.2V82.3c0-6.7-6-11.5-14.2-11.5S394,74.9,394,80.9a9.3,9.3,0,0,0,3.1,7.2c3.3,2.6,3.6,2.6,18.9,7.4,25,7.7,34.8,17.5,34.8,35.5,0,21.6-17.2,36-43.2,36s-42.4-13.4-43.6-36.4h29.2c1.5,9.6,5.8,13.9,14.7,13.9,7.2,0,12.2-4.3,12.2-10.6s-4.3-9.8-20.6-14.9c-24-7.2-34.8-18-34.8-35.5,0-21.1,17-35.3,42.9-35.3s40.8,13.5,41.6,36Z"/><path d="M12,212.4H57.4c25.9,0,43.4,5.2,57.6,17.7,16.3,14.4,25.2,35.3,25.2,60.5s-9.1,48.7-25.5,63.4c-13.2,12-32.4,18.4-55.4,18.4H12ZM44.9,345.3h6.2c17.6,0,28.4-3.1,37.7-11,11.5-9.9,18-25,18-42.7,0-32-19.4-52.6-49.9-52.6h-12Z"/><path d="M181.9,229.9c0,9.3-7.2,16.5-16.8,16.5s-17-7.2-17-16.8,7.2-17,17-17S181.9,219.8,181.9,229.9Zm-1.6,142.5H149.8V261.3h30.5Z"/><path d="M303.2,345.3v27.1H216.8V212.6h30.5V345.3Z"/><path d="M396.6,261.3H427V372.4H396.6V357.1c-10.4,13.2-22.4,19.2-38.7,19.2-31.2,0-53.5-24.3-53.5-58.1s23.5-60.7,55.9-60.7c15.1,0,25.5,5.3,36.3,18ZM337,317.7c0,19.5,12.8,34.1,29.3,34.1S397,336,397,316.8s-12.4-33.6-30.4-33.6S337,297.3,337,317.7Z"/><path d="M533.1,261.3v70.3c0,16.4-3.3,25.5-12.5,33.2s-21.3,11.5-36,11.5S456.1,372,447.4,364s-11.7-17.7-11.7-32.4V261.3h30.5v68.4c0,12.5,7.4,20.9,18.4,20.9s18-7.2,18-19V261.3Z"/><path d="M572.5,261.3v16.3c3.1-8.1,5.3-11.5,9.8-14.8a31.6,31.6,0,0,1,18-5.3,28.8,28.8,0,0,1,3.6.2v31.2c-2.4-.2-4.8-.5-6.5-.5A24.9,24.9,0,0,0,577,298.5c-3.6,5.1-4.5,9.9-4.5,20.4v53.5H542V261.3Z"/><path d="M726.3,318c0,32.6-26.6,58.3-60.7,58.3s-60.2-24.7-60.2-59.3,24.7-59.5,60.7-59.5S726.3,282.9,726.3,318Zm-90.2-1c0,19.2,12,32.2,29.7,32.2s29.8-13.2,29.8-31.7c0-20.2-11.3-32.7-29.5-32.7S636.1,297.6,636.1,317Z"/></svg>