<svg xmlns="http://www.w3.org/2000/svg" width="750" height="429" viewBox="0 0 750 429"><path d="M138.7 142.3c-18.5 17.3-35.8 24.3-59.6 24.3s-43.3-8.2-57.5-24S0 105.8 0 83.7C0 34.9 33.2 0 79.6 0c24.7 0 41.6 7 60.5 25.5l-21.3 21.6c-13-11.8-24.1-16.6-37.5-16.6-28.2 0-47.9 21.7-47.9 52.4s20.7 53.2 49.5 53.2c14.7 0 26-5.1 35.9-16.4zm41.1-78.1c9.4-11.1 18.5-15.9 30.5-15.9 9.7 0 20.2 4.1 26.7 10.4s9.9 15.3 9.9 31.4v73.4h-30.6v-69c0-12.5-6.4-20.5-16.5-20.5a19.1 19.1 0 0 0-13.7 5.6c-4.8 4.5-6.3 8.9-6.3 17.5v66.4h-30.5V3.1h30.5zm107.9-12v16.3c3.2-8.2 5.3-11.5 9.9-14.9a31.6 31.6 0 0 1 18-5.3 19.3 19.3 0 0 1 3.6.3v31.2c-2.4-.2-4.8-.5-6.5-.5-8.4 0-16.1 3.9-20.4 10.1s-4.6 9.9-4.6 20.5v53.6h-30.5V52.2zm71-31.5a17 17 0 0 1-33.9-.3c0-9.8 7.2-17 17-17s16.9 7.2 16.9 17.3zM357 163.5h-30.6V52.2H357zm63.4-79.1v-1.9c0-6.8-6-11.6-14.2-11.6S394 75 394 81c0 2.9 1.2 5.8 3.1 7.2s3.6 2.7 19 7.5c25 7.7 34.9 17.5 34.9 35.6 0 21.6-17.3 36-43.3 36s-42.6-13.4-43.8-36.5h29.4c1.4 9.6 5.7 13.9 14.6 13.9 7.2 0 12.3-4.3 12.3-10.6s-4.3-9.8-20.7-14.9c-24-7.2-34.8-18-34.8-35.5 0-21.2 17-35.4 43-35.4s40.9 13.5 41.6 36.1zM7.9 214.3h45.5c25.9 0 43.5 5.3 57.7 17.8 16.3 14.4 25.2 35.3 25.2 60.5s-9.1 48.8-25.5 63.5c-13.2 12-32.4 18.5-55.5 18.5H7.9zm33 133.2h6.2c17.6 0 28.4-3.2 37.8-11.1 11.5-9.9 18-25 18-42.8 0-32-19.5-52.6-50-52.6h-12zm137.2-115.7a16.4 16.4 0 0 1-16.8 16.6c-9.9 0-17.1-7.2-17.1-16.8s7.2-17.1 17.1-17.1 16.8 7.2 16.8 17.3zm-1.7 142.8h-30.5V263.3h30.5zM319 347.5v27.1h-86.6V214.3h33v133.2zm100.7-84.2h30.5v111.3h-30.5v-15.4c-10.3 13.3-22.3 19.3-38.7 19.3-31.2 0-53.6-24.3-53.6-58.2s23.6-60.8 56-60.8c15.2 0 25.5 5.3 36.3 18zm-59.6 56.5c0 19.5 12.7 34.1 29.3 34.1s30.8-15.8 30.8-35.1-12.5-33.6-30.5-33.6-29.6 14.2-29.6 34.6zm196.4-56.5v70.4c0 16.4-3.4 25.5-12.5 33.2s-21.4 11.6-36.1 11.6-28.6-4.4-37.2-12.3-11.8-17.8-11.8-32.5v-70.4h30.5v68.5c0 12.5 7.5 20.9 18.5 20.9s18.1-7.2 18.1-19v-70.4zm39.4 0v16.4c3.1-8.2 5.3-11.6 9.9-14.9a31.6 31.6 0 0 1 18-5.3 28.8 28.8 0 0 1 3.6.2V291a57.4 57.4 0 0 0-6.5-.5c-8.4 0-16.1 3.8-20.4 10.1s-4.6 9.8-4.6 20.4v53.6h-30.5V263.3zM750 320c0 32.7-26.7 58.5-60.8 58.5s-60.4-24.8-60.4-59.4 24.8-59.6 60.9-59.6S750 284.9 750 320zm-90.4-.9c0 19.2 12 32.2 29.8 32.2s29.8-13.2 29.8-31.7c0-20.2-11.3-32.7-29.5-32.7s-30.1 12.7-30.1 32.2zm-652 70.4h736v26.73H7.6z"/></svg>