<svg id="Layer_1" data-name="Layer 1" xmlns="http://www.w3.org/2000/svg" width="820" height="417" viewBox="0 0 820 417"><title>home-title</title><path d="M139.4,142.7C120.9,160,103.6,167,79.8,167s-43.3-8.2-57.5-24.1S.7,106.1.7,84C.7,35.2,33.9.4,80.3.4c24.7,0,41.6,6.9,60.6,25.4L119.5,47.5C106.5,35.7,95.4,30.9,82,30.9c-28.2,0-47.9,21.6-47.9,52.4s20.7,53.1,49.5,53.1c14.7,0,26-5,35.9-16.3Z"/><path d="M180.5,64.6C189.9,53.5,199,48.7,211,48.7c9.7,0,20.2,4.1,26.7,10.3s9.9,15.4,9.9,31.5v73.3H217.1v-69c0-12.5-6.5-20.4-16.6-20.4a19,19,0,0,0-13.7,5.5c-4.8,4.6-6.3,8.9-6.3,17.6v66.3H150V3.5h30.5Z"/><path d="M288.4,52.5V68.9c3.2-8.2,5.3-11.6,9.9-14.9a31.6,31.6,0,0,1,18-5.3,27.1,27.1,0,0,1,3.6.2V80.2a57.5,57.5,0,0,0-6.4-.5c-8.5,0-16.2,3.8-20.5,10.1s-4.6,9.8-4.6,20.4v53.6H257.9V52.5Z"/><path d="M359.4,21c0,9.4-7.3,16.6-16.9,16.6s-17-7.2-17-16.8,7.2-17.1,17-17.1S359.4,10.9,359.4,21Zm-1.7,142.8H327.1V52.5h30.6Z"/><path d="M421.1,84.7V82.8c0-6.7-6-11.5-14.1-11.5s-12.3,4.1-12.3,10.1a9.3,9.3,0,0,0,3.1,7.2c3.4,2.6,3.6,2.6,19,7.4,25,7.7,34.9,17.6,34.9,35.6,0,21.7-17.3,36.1-43.3,36.1s-42.6-13.5-43.8-36.6H394c1.4,9.7,5.7,14,14.6,14,7.2,0,12.3-4.3,12.3-10.6s-4.3-9.8-20.7-14.9c-24-7.2-34.8-18-34.8-35.6,0-21.1,17-35.3,43-35.3s40.9,13.4,41.6,36Z"/><path d="M8.6,214.6H54.1c25.9,0,43.5,5.3,57.7,17.8C128.1,246.9,137,267.8,137,293s-9.1,48.8-25.5,63.5C98.3,368.5,79.1,375,56,375H8.6Zm33,133.2h6.2c17.6,0,28.4-3.1,37.8-11,11.5-9.9,18-25,18-42.8,0-32-19.5-52.7-50-52.7h-12Z"/><path d="M178.8,232.2A16.4,16.4,0,0,1,162,248.8c-9.9,0-17.1-7.2-17.1-16.9s7.2-17,17.1-17S178.8,222.1,178.8,232.2ZM177.2,375H146.6V263.7h30.6Z"/><path d="M319.7,347.8V375H233.2V214.6h32.9V347.8Z"/><path d="M420.4,263.7h30.5V375H420.4V359.6c-10.3,13.2-22.3,19.2-38.7,19.2-31.2,0-53.6-24.3-53.6-58.1s23.6-60.9,56-60.9c15.2,0,25.5,5.3,36.3,18.1Zm-59.6,56.5c0,19.4,12.7,34.1,29.3,34.1s30.8-15.9,30.8-35.1-12.5-33.6-30.5-33.6S360.8,299.7,360.8,320.2Z"/><path d="M557.2,263.7v70.4c0,16.4-3.4,25.5-12.5,33.2s-21.4,11.5-36.1,11.5-28.6-4.3-37.2-12.2-11.8-17.8-11.8-32.5V263.7h30.5v68.5c0,12.5,7.5,20.9,18.5,20.9s18.1-7.2,18.1-19V263.7Z"/><path d="M596.6,263.7V280c3.1-8.1,5.3-11.5,9.9-14.9a32.4,32.4,0,0,1,18-5.3,19.3,19.3,0,0,1,3.6.3v31.2c-2.4-.2-4.8-.5-6.5-.5-8.4,0-16.1,3.9-20.4,10.1s-4.6,9.9-4.6,20.5V375H566.1V263.7Z"/><path d="M750.7,320.4c0,32.7-26.7,58.4-60.8,58.4s-60.4-24.7-60.4-59.3,24.8-59.7,60.9-59.7S750.7,285.3,750.7,320.4Zm-90.4-.9c0,19.2,12,32.2,29.8,32.2s29.8-13.3,29.8-31.8c0-20.2-11.3-32.7-29.5-32.7S660.3,300,660.3,319.5Z"/><rect x="6.7" y="389.9" width="736" height="26.73"/></svg>