<svg xmlns="http://www.w3.org/2000/svg" width="833.1" height="429" viewBox="0 0 833.1 429"><path d="M7 389.5h298.7v26.73H7zm349.7 0h470.8v26.73H356.7zM7.8 6.2h45.3c26 0 43.5 5.3 57.6 17.8 16.4 14.4 25.2 35.3 25.2 60.5s-9.1 48.7-25.4 63.3c-13.2 12-32.4 18.5-55.4 18.5H7.8zm32.9 133h6.2c17.5 0 28.3-3.1 37.7-11 11.5-9.9 18-25 18-42.8 0-31.9-19.5-52.5-49.9-52.5h-12zm130-21.1c2.7 15.3 14 24.9 29.1 24.9 11.3 0 20.9-5.5 25.7-14.4l28 7.7c-11 21.6-30.4 33.9-54 33.9-35.2 0-60.4-25-60.4-59.6s24.2-59.2 58.5-59.2 60.3 24.9 60.3 60.7l-.3 6zm55.7-17.5C223.8 85.9 213.2 77 198.1 77s-24.5 8.4-27.4 23.6zm91.2-13.2v-2c0-6.7-6-11.5-14.1-11.5S291.2 78 291.2 84c0 2.9 1.2 5.8 3.1 7.2s3.6 2.6 19 7.4c25 7.7 34.8 17.6 34.8 35.6 0 21.6-17.3 36-43.2 36s-42.5-13.5-43.7-36.5h29.3c1.4 9.6 5.8 13.9 14.6 13.9 7.2 0 12.3-4.3 12.3-10.6s-4.3-9.8-20.7-14.8c-24-7.2-34.8-18-34.8-35.6 0-21.1 17.1-35.2 43-35.2s40.8 13.4 41.5 36zm70.8-63.7a16.4 16.4 0 0 1-16.8 16.6c-9.8 0-17-7.2-17-16.8s7.2-17 17-17 16.8 7.2 16.8 17.2zm-1.7 142.6h-30.4V55.2h30.4zm98.2-111.1h30v103c0 22.8-4.3 36-14.9 46.3s-27.1 16.8-46.1 16.8c-21.6 0-39.3-7.2-54.4-22.1l18.9-19.2c9.9 10.6 20.4 15.4 34.3 15.4 20.4 0 32.2-12 32.2-32.9v-11.3c-10.1 12.7-23 19-39.1 19-30.5 0-52.6-24.8-52.6-58.6 0-36 22.3-60.2 55.7-60.2 15.6 0 26.4 5.2 36 17.5zm-59.3 55c0 19.2 12.5 32.8 30 32.8a30.7 30.7 0 0 0 23.1-10.3c3.6-4.3 5.7-11.3 5.7-19.7 0-12-2.6-20.1-8.1-25.9a30.9 30.9 0 0 0-20.9-8.6c-17.5 0-29.8 13.2-29.8 31.7zm130.8-55v13.7c8.2-12.7 16.3-17.5 30.2-17.5 10.6 0 20.7 3.8 27.4 10.3s9.9 16.1 9.9 34.3v70.3h-30.5V97.4c0-6.2-.8-9.8-2.7-12.9s-8.6-7.5-14.6-7.5c-11.8 0-19.7 8.9-19.7 21.9v67.4h-30.5V55.2zM40.7 377.8H7.8v-160h51.1c37.9 0 59.3 18.4 59.3 51.1s-21.9 54-57.1 54H40.7zm14.1-82c19 0 30-9.2 30-25.2s-11.3-25.7-29.3-25.7H40.7v50.9zm99.6-29.1V283c3.1-8.1 5.3-11.5 9.9-14.8a31.3 31.3 0 0 1 18-5.3 28.8 28.8 0 0 1 3.6.2v31.2c-2.4-.2-4.8-.5-6.5-.5-8.4 0-16.1 3.9-20.4 10.1s-4.6 9.9-4.6 20.4v53.5h-30.5V266.7zM308 323.4c0 32.6-26.6 58.3-60.7 58.3s-60.2-24.7-60.2-59.3 24.7-59.5 60.7-59.5 60.2 25.4 60.2 60.5zm-90.2-1c0 19.2 12 32.2 29.7 32.2s29.8-13.2 29.8-31.7c0-20.2-11.3-32.7-29.5-32.7s-30 12.8-30 32.2z"/><path d="M346.7 266.7v13.7c9.1-12.2 19.9-17.5 36.4-17.5a53.8 53.8 0 0 1 31 9.1c16.8 11.5 25.2 28.3 25.2 50.6 0 35.6-22.1 59.1-55.4 59.1-16.1 0-27.9-5.1-37.2-15.9v61.7h-30.5V266.7zm0 56.9c0 20.2 11.7 33.6 29.5 33.6s30.5-14.2 30.5-33.8-12.3-34.8-29.6-34.8-30.4 14.4-30.4 35zm219.8-.2c0 32.6-26.6 58.3-60.7 58.3s-60.3-24.7-60.3-59.3 24.8-59.5 60.8-59.5 60.2 25.4 60.2 60.5zm-90.2-1c0 19.2 12 32.2 29.7 32.2s29.8-13.2 29.8-31.7c0-20.2-11.3-32.7-29.5-32.7s-30 12.8-30 32.2zM627 298.9V297c0-6.8-6-11.6-14.2-11.6s-12.2 4.1-12.2 10.1c0 2.9 1.2 5.8 3.1 7.2s3.6 2.7 19 7.5c24.9 7.6 34.8 17.5 34.8 35.5 0 21.6-17.3 36-43.2 36s-42.5-13.5-43.7-36.5h29.3c1.4 9.6 5.7 13.9 14.6 13.9 7.2 0 12.2-4.3 12.2-10.5s-4.3-9.9-20.6-14.9c-24-7.2-34.8-18-34.8-35.5 0-21.2 17-35.3 43-35.3s40.8 13.4 41.5 36zm128.1-32.2h30.5v111.1h-30.5v-15.3c-10.3 13.2-22.3 19.2-38.6 19.2-31.2 0-53.5-24.3-53.5-58.1s23.5-60.7 55.9-60.7c15.1 0 25.4 5.3 36.2 18zm-59.5 56.4c0 19.5 12.7 34.1 29.3 34.1s30.7-15.8 30.7-35-12.5-33.6-30.5-33.6-29.5 14.1-29.5 34.5zm100.8 54.7v-160h30.5v160z"/></svg>