<svg id="Layer_1" data-name="Layer 1" xmlns="http://www.w3.org/2000/svg" width="976" height="429" viewBox="0 0 976 429"><title>rc-title</title><rect x="2.1" y="389.5" width="964.2" height="26.73"/><path d="M59.5,7.2c19.7,0,32.4,2.9,40.8,9.2S115.6,36,115.6,50.2c0,11-3.3,20.2-10,27.4-4.6,4.5-8.2,6.7-16.8,9.6,9.6,2.1,13.9,4,18.9,8.6,7.5,6.7,11.5,16.6,11.5,28.8,0,14.9-6.2,28.1-16.5,35-8.4,5.6-18.3,7.7-35.8,7.7H7.9V7.2Zm-18.7,68H54c19.4,0,28.5-7,28.5-21.9,0-8.1-3.8-15.1-9.6-18s-11.3-3.1-20.6-3.1H40.8Zm0,67.9h16c11.3,0,16.6-1,21.4-4.3s7.9-9.4,7.9-17.1S83,107.1,77,103.5s-10.1-3.9-22.1-3.9H40.8Z"/><path d="M154.8,56.2V72.5c3.1-8.1,5.2-11.5,9.8-14.9a32.3,32.3,0,0,1,18-5.2,28.8,28.8,0,0,1,3.6.2V83.8c-2.4-.2-4.8-.5-6.5-.5-8.4,0-16.1,3.9-20.4,10.1s-4.5,9.8-4.5,20.4v53.5H124.3V56.2Z"/><path d="M279.3,56.2h30.5V167.3H279.3V152c-10.3,13.2-22.3,19.2-38.6,19.2-31.2,0-53.5-24.3-53.5-58.1s23.5-60.7,55.9-60.7c15.1,0,25.4,5.2,36.2,18Zm-59.5,56.4c0,19.4,12.7,34.1,29.3,34.1s30.7-15.9,30.7-35.1S267.3,78,249.3,78,219.8,92.2,219.8,112.6Z"/><path d="M351.1,56.2V69.9c8.1-12.7,16.3-17.5,30.2-17.5,10.6,0,20.7,3.8,27.4,10.3s9.8,16.1,9.8,34.3v70.3H388V98.4c0-6.2-.7-9.8-2.6-12.9S376.8,78,370.8,78c-11.8,0-19.7,8.9-19.7,21.9v67.4H320.6V56.2Z"/><path d="M518.8,7.2h30.5V167.3H518.8V152.7c-9.6,13.2-20.1,18.5-37.2,18.5-32.8,0-54.9-23.6-54.9-58.4,0-18.7,6.2-34.3,17.7-45.1s24-15.3,37.7-15.3,25.9,4.8,36.7,16ZM459.1,113.1c0,19.2,12.7,33.6,30,33.6s29.7-14.7,29.7-33.9S506.4,78,489.3,78,459.1,92.7,459.1,113.1Z"/><path d="M723.1,167.3H687.8l-12.2-15.6c-17.1,13.7-31,19.7-45.9,19.7-27.1,0-47-19.4-47-46.1,0-20.1,8.4-31.9,34.8-48.9-10.1-14.7-13.2-22.1-13.2-32.7,0-19.7,16.8-34.1,40.1-34.1s39.1,14.2,39.1,33.9c0,8.1-3.4,17.3-9.4,24.7-4.1,4.8-7.9,8.2-17,14.2l22.1,29.5c11.7-10.6,13.4-12.3,23.5-23.8l20.4,18c-12.7,13.9-14.7,15.9-26.9,27.4ZM632.8,98c-14.9,9.6-19.9,16-19.9,25.2a20.8,20.8,0,0,0,20.4,20.6c8.4,0,16.1-4.3,24.5-13.7Zm22.8-54c0-6.3-4.5-11.1-10.8-11.1a11.6,11.6,0,0,0-11.7,11.3c0,5.5,1.9,9.6,8.4,17.8C652,55.5,655.6,50.7,655.6,44Z"/><path d="M164.6,289.1v8.6c0,24.7-7.2,43.2-23.3,59.5S104.8,382,82.3,382C35.2,382,0,346.4,0,299.2s35-83.6,82-83.6c26,0,49.2,11.1,64.8,30.8l-24.7,19.4c-11.7-13.9-23.5-19.9-39.3-19.9-28.1,0-49.5,23-49.5,53.3s22.1,53,50.2,53c13.7,0,27.3-6,35.7-16.1,4.8-5.5,7.2-10.5,9.9-20.1H84.4V289.1Z"/><path d="M267.6,267.7V338c0,16.4-3.4,25.5-12.5,33.2s-21.4,11.5-36,11.5-28.6-4.3-37.2-12.3-11.8-17.7-11.8-32.4V267.7h30.5v68.4c0,12.5,7.4,20.9,18.5,20.9s18-7.2,18-19V267.7Z"/><path d="M308.6,236.3c0,9.3-7.2,16.5-16.8,16.5s-17-7.2-17-16.8,7.2-17,17-17S308.6,226.2,308.6,236.3Zm-1.7,142.6H276.4V267.7h30.5Z"/><path d="M403.2,218.8h30.4V378.9H403.2V364.2c-9.6,13.2-20.2,18.5-37.2,18.5-32.9,0-55-23.5-55-58.3,0-18.8,6.2-34.4,17.8-45.2a55.5,55.5,0,0,1,37.6-15.3c15.2,0,26,4.8,36.8,16.1ZM343.4,324.6c0,19.2,12.7,33.6,30,33.6s29.8-14.6,29.8-33.8-12.5-34.8-29.6-34.8S343.4,304.2,343.4,324.6Z"/><path d="M473.7,330.6c2.7,15.4,13.9,25,29.1,25,11.2,0,20.8-5.6,25.6-14.4l28.1,7.6c-11,21.6-30.5,33.9-54,33.9-35.3,0-60.5-25-60.5-59.5s24.3-59.3,58.6-59.3,60.2,24.9,60.2,60.7l-.2,6Zm55.7-17.5c-2.6-14.7-13.2-23.5-28.3-23.5s-24.5,8.4-27.4,23.5Z"/><path d="M567.3,378.9V218.8h30.5V378.9Z"/><path d="M641,236.3c0,9.3-7.2,16.5-16.8,16.5s-17-7.2-17-16.8,7.2-17,17-17S641,226.2,641,236.3Zm-1.7,142.6H608.8V267.7h30.5Z"/><path d="M680.8,267.7v13.7c8.2-12.7,16.4-17.5,30.3-17.5,10.5,0,20.6,3.8,27.3,10.3s9.9,16.1,9.9,34.3v70.4H717.8V310c0-6.3-.7-9.9-2.6-13s-8.7-7.4-14.7-7.4c-11.7,0-19.7,8.8-19.7,21.8v67.5H650.4V267.7Z"/><path d="M787.9,330.6c2.6,15.4,13.9,25,29,25,11.3,0,20.9-5.6,25.7-14.4l28.1,7.6c-11.1,21.6-30.5,33.9-54,33.9-35.3,0-60.5-25-60.5-59.5s24.2-59.3,58.5-59.3S875,288.8,875,324.6l-.2,6Zm55.7-17.5c-2.7-14.7-13.2-23.5-28.4-23.5s-24.5,8.4-27.3,23.5Z"/><path d="M934.7,299.9V298c0-6.8-6-11.6-14.1-11.6s-12.3,4.1-12.3,10.1c0,2.9,1.2,5.8,3.2,7.2s3.6,2.7,18.9,7.5c25,7.6,34.8,17.5,34.8,35.5,0,21.6-17.3,36-43.2,36s-42.5-13.5-43.7-36.5h29.3c1.5,9.6,5.8,13.9,14.7,13.9,7.2,0,12.2-4.3,12.2-10.5s-4.3-9.9-20.6-14.9c-24-7.2-34.8-18-34.8-35.5,0-21.2,17-35.3,42.9-35.3s40.8,13.4,41.6,36Z"/></svg>