<svg id="Layer_1" data-name="Layer 1" xmlns="http://www.w3.org/2000/svg" width="976.1" height="429" viewBox="0 0 976.1 429"><title>rc-title</title><rect x="2.1" y="389.5" width="964.2" height="26.73"/><path d="M59.5,7.2c19.7,0,32.4,2.9,40.8,9.2,9.9,7.4,15.4,19.6,15.4,33.8,0,11-3.4,20.2-10.1,27.4-4.6,4.5-8.2,6.7-16.8,9.6,9.6,2.1,13.9,4,19,8.6,7.4,6.7,11.5,16.6,11.5,28.8,0,14.9-6.3,28.1-16.6,35-8.4,5.6-18.2,7.7-35.7,7.7H7.9V7.2Zm-18.7,68H54c19.4,0,28.6-7,28.6-21.9,0-8.1-3.9-15.1-9.6-18s-11.3-3.1-20.7-3.1H40.8Zm0,67.9H56.9c11.3,0,16.5-1,21.3-4.3s8-9.4,8-17.1S83,107.1,77,103.5s-10-3.9-22-3.9H40.8Z"/><path d="M154.8,56.2V72.5c3.1-8.1,5.3-11.5,9.8-14.9a32.3,32.3,0,0,1,18-5.2,27.1,27.1,0,0,1,3.6.2V83.8c-2.4-.2-4.8-.5-6.4-.5-8.4,0-16.1,3.9-20.4,10.1s-4.6,9.8-4.6,20.4v53.5H124.3V56.2Z"/><path d="M279.4,56.2h30.4V167.3H279.4V152c-10.4,13.2-22.4,19.2-38.7,19.2-31.2,0-53.5-24.3-53.5-58.1s23.5-60.7,55.9-60.7c15.1,0,25.5,5.2,36.3,18Zm-59.6,56.4c0,19.4,12.8,34.1,29.3,34.1s30.7-15.9,30.7-35.1S267.4,78,249.4,78,219.8,92.2,219.8,112.6Z"/><path d="M351.1,56.2V69.9c8.2-12.7,16.3-17.5,30.3-17.5,10.5,0,20.6,3.8,27.3,10.3s9.9,16.1,9.9,34.3v70.3H388.1V98.4c0-6.2-.7-9.8-2.7-12.9S376.8,78,370.8,78c-11.8,0-19.7,8.9-19.7,21.9v67.4H320.6V56.2Z"/><path d="M518.9,7.2h30.5V167.3H518.9V152.7c-9.6,13.2-20.2,18.5-37.2,18.5-32.9,0-55-23.6-55-58.4,0-18.7,6.3-34.3,17.8-45.1a55.6,55.6,0,0,1,37.7-15.3c15.1,0,25.9,4.8,36.7,16ZM459.1,113.1c0,19.2,12.7,33.6,30,33.6s29.8-14.7,29.8-33.9S506.4,78,489.4,78,459.1,92.7,459.1,113.1Z"/><path d="M723.1,167.3H687.8l-12.2-15.6c-17.1,13.7-31,19.7-45.9,19.7-27.1,0-47-19.4-47-46.1,0-20.1,8.4-31.9,34.8-48.9-10.1-14.7-13.2-22.1-13.2-32.7,0-19.7,16.8-34.1,40.1-34.1s39.1,14.2,39.1,33.9c0,8.1-3.3,17.3-9.3,24.7-4.1,4.8-8,8.2-17.1,14.2l22.1,29.5c11.8-10.6,13.4-12.3,23.5-23.8l20.4,18c-12.7,13.9-14.6,15.9-26.9,27.4ZM632.9,98c-14.9,9.6-20,16-20,25.2a20.8,20.8,0,0,0,20.4,20.6c8.5,0,16.1-4.3,24.5-13.7Zm22.8-54c0-6.3-4.6-11.1-10.8-11.1a11.6,11.6,0,0,0-11.8,11.3c0,5.5,1.9,9.6,8.4,17.8C652.1,55.5,655.7,50.7,655.7,44Z"/><path d="M164.6,289.1v8.6c0,24.7-7.2,43.2-23.2,59.5S104.9,382,82.3,382C35.3,382,0,346.4,0,299.2s35-83.6,82.1-83.6c25.9,0,49.2,11.1,64.8,30.8l-24.7,19.4c-11.8-13.9-23.6-19.9-39.4-19.9-28.1,0-49.4,23-49.4,53.3s22,53,50.1,53c13.7,0,27.4-6,35.8-16.1,4.8-5.5,7.2-10.5,9.8-20.1H84.5V289.1Z"/><path d="M267.6,267.7V338c0,16.4-3.4,25.5-12.5,33.2s-21.3,11.5-36,11.5-28.5-4.3-37.2-12.3-11.7-17.7-11.7-32.4V267.7h30.4v68.4c0,12.5,7.5,20.9,18.5,20.9s18-7.2,18-19V267.7Z"/><path d="M308.6,236.3c0,9.3-7.2,16.5-16.8,16.5s-17-7.2-17-16.8,7.2-17,17-17S308.6,226.2,308.6,236.3ZM307,378.9H276.5V267.7H307Z"/><path d="M403.2,218.8h30.5V378.9H403.2V364.2c-9.6,13.2-20.2,18.5-37.2,18.5-32.9,0-55-23.5-55-58.3,0-18.8,6.3-34.4,17.8-45.2s24-15.3,37.7-15.3,25.9,4.8,36.7,16.1ZM343.4,324.6c0,19.2,12.8,33.6,30,33.6s29.8-14.6,29.8-33.8-12.5-34.8-29.5-34.8S343.4,304.2,343.4,324.6Z"/><path d="M473.8,330.6c2.6,15.4,13.9,25,29,25,11.3,0,20.9-5.6,25.7-14.4l28.1,7.6c-11.1,21.6-30.5,33.9-54,33.9-35.3,0-60.5-25-60.5-59.5s24.2-59.3,58.5-59.3,60.3,24.9,60.3,60.7l-.3,6Zm55.6-17.5c-2.6-14.7-13.2-23.5-28.3-23.5s-24.5,8.4-27.3,23.5Z"/><path d="M567.4,378.9V218.8h30.4V378.9Z"/><path d="M641,236.3c0,9.3-7.2,16.5-16.8,16.5s-17-7.2-17-16.8,7.2-17,17-17S641,226.2,641,236.3Zm-1.6,142.6H608.9V267.7h30.5Z"/><path d="M680.9,267.7v13.7c8.1-12.7,16.3-17.5,30.2-17.5,10.6,0,20.7,3.8,27.4,10.3s9.8,16.1,9.8,34.3v70.4H717.8V310c0-6.3-.7-9.9-2.6-13s-8.6-7.4-14.6-7.4c-11.8,0-19.7,8.8-19.7,21.8v67.5H650.4V267.7Z"/><path d="M787.9,330.6c2.6,15.4,13.9,25,29,25,11.3,0,20.9-5.6,25.7-14.4l28.1,7.6c-11,21.6-30.5,33.9-54,33.9-35.3,0-60.5-25-60.5-59.5s24.3-59.3,58.6-59.3S875,288.8,875,324.6l-.2,6Zm55.7-17.5c-2.6-14.7-13.2-23.5-28.3-23.5s-24.5,8.4-27.4,23.5Z"/><path d="M934.8,299.9V298c0-6.8-6-11.6-14.2-11.6s-12.2,4.1-12.2,10.1c0,2.9,1.2,5.8,3.1,7.2,3.4,2.7,3.6,2.7,19,7.5,24.9,7.6,34.8,17.5,34.8,35.5,0,21.6-17.3,36-43.2,36s-42.5-13.5-43.7-36.5h29.3c1.4,9.6,5.7,13.9,14.6,13.9,7.2,0,12.2-4.3,12.2-10.5s-4.3-9.9-20.6-14.9c-24-7.2-34.8-18-34.8-35.5,0-21.2,17-35.3,43-35.3s40.8,13.4,41.5,36Z"/></svg>