<svg id="Layer_1" data-name="Layer 1" xmlns="http://www.w3.org/2000/svg" width="820" height="417" viewBox="0 0 820 417"><title>rc-title</title><path d="M33.3,162.1H.4V2H49.8c39.6,0,61,17.5,61,50.4,0,25.2-13.2,42-37.9,48.3L117,162.1H77.2L33.3,98.5ZM48.2,79.3c18.7,0,29.2-9.1,29.2-25.2s-10-25-26.4-25H33.3V79.3Z"/><path d="M145.1,113.9c2.7,15.3,13.9,24.9,29.1,24.9,11.2,0,20.8-5.5,25.6-14.4l28.1,7.7c-11,21.6-30.5,33.9-54,33.9-35.3,0-60.5-25-60.5-59.6S137.7,47.1,172,47.1s60.2,25,60.2,60.8l-.2,6Zm55.7-17.5c-2.6-14.7-13.2-23.6-28.3-23.6S148,81.2,145.1,96.4Z"/><path d="M302.1,117H248.8V90.1h53.3Z"/><path d="M52,213.6c19.7,0,32.4,2.8,40.8,9.1s15.4,19.7,15.4,33.8c0,11.1-3.4,20.2-10.1,27.4-4.6,4.5-8.2,6.7-16.8,9.6,9.6,2.1,13.9,4.1,18.9,8.6,7.5,6.7,11.6,16.6,11.6,28.8,0,14.9-6.3,28.1-16.6,35.1-8.4,5.5-18.2,7.6-35.8,7.6H.4v-160ZM33.3,281.5H46.5c19.4,0,28.5-7,28.5-21.9,0-8.1-3.8-15.1-9.6-18s-11.2-3.1-20.6-3.1H33.3Zm0,67.9H49.4c11.2,0,16.5-1,21.3-4.3s7.9-9.4,7.9-17.1-3.1-14.6-9.1-18.2S59.4,306,47.4,306H33.3Z"/><path d="M147.3,262.5v16.3c3.1-8.1,5.3-11.5,9.8-14.8a31.6,31.6,0,0,1,18-5.3,28.8,28.8,0,0,1,3.6.2v31.2c-2.4-.2-4.8-.5-6.5-.5a24.9,24.9,0,0,0-20.4,10.1c-3.6,5.1-4.5,9.9-4.5,20.4v53.5H116.8V262.5Z"/><path d="M271.8,262.5h30.5V373.6H271.8V358.3c-10.3,13.2-22.3,19.2-38.6,19.2-31.2,0-53.5-24.3-53.5-58.1s23.5-60.7,55.9-60.7c15.1,0,25.4,5.3,36.2,18Zm-59.5,56.4c0,19.5,12.7,34.1,29.3,34.1s30.7-15.8,30.7-35-12.5-33.6-30.5-33.6S212.3,298.5,212.3,318.9Z"/><path d="M343.6,262.5v13.7c8.1-12.7,16.3-17.5,30.2-17.5,10.6,0,20.7,3.8,27.4,10.3s9.8,16.1,9.8,34.3v70.3H380.5V304.8c0-6.3-.7-9.9-2.6-13-2.9-4.6-8.6-7.4-14.6-7.4-11.8,0-19.7,8.8-19.7,21.8v67.4H313.1V262.5Z"/><path d="M511.3,213.6h30.5v160H511.3V359c-9.6,13.2-20.1,18.5-37.2,18.5-32.8,0-54.9-23.5-54.9-58.3,0-18.8,6.2-34.4,17.7-45.2s24-15.3,37.7-15.3,25.9,4.8,36.7,16.1ZM451.6,319.4c0,19.2,12.7,33.6,30,33.6s29.7-14.6,29.7-33.8-12.4-34.8-29.5-34.8S451.6,299,451.6,319.4Z"/><rect x="0.1" y="383.5" width="541.6" height="26.73"/></svg>