<svg xmlns="http://www.w3.org/2000/svg"><symbol id="anco-title" viewBox="0 0 493 429"><path d="M7 389.5h473.8v26.73H7zm87.2-249.3v27.1H7.8V7.2h32.9v133z"/><path d="M155.9 56.2h32.4L125.6 218H93l20.9-53.3L75 56.2h32.4l22.6 66zm68.1 0v16.3c3.1-8.1 5.3-11.5 9.9-14.9a32.3 32.3 0 0 1 18-5.2 28.8 28.8 0 0 1 3.6.2v31.2c-2.4-.2-4.8-.5-6.5-.5-8.4 0-16.1 3.9-20.4 10.1s-4.6 9.8-4.6 20.4v53.5h-30.5V56.2zm70.6-31.5a16.4 16.4 0 0 1-16.8 16.6c-9.9 0-17.1-7.2-17.1-16.8s7.2-17 17.1-17 16.8 7.2 16.8 17.2zm-1.7 142.6h-30.5V56.2h30.5zm110.2-12.7c-12.8 11.5-26 16.6-42.8 16.6-33.8 0-58.8-25-58.8-58.8s24.5-60 59.1-60c16.5 0 30.2 5.7 44.4 18.4l-20.4 18.5c-6.7-6.7-13.9-9.8-22.8-9.8-16.8 0-29.3 13.7-29.3 31.9S345.2 144 363 144c7.9 0 13.7-2.4 21.6-9.3zM59.4 218.8c19.7 0 32.4 2.8 40.8 9.1s15.4 19.7 15.4 33.8c0 11.1-3.4 20.2-10.1 27.4-4.6 4.5-8.2 6.7-16.8 9.6 9.6 2.1 13.9 4.1 18.9 8.6 7.5 6.7 11.6 16.6 11.6 28.8 0 14.9-6.3 28.1-16.6 35.1-8.4 5.5-18.2 7.7-35.8 7.7h-59V218.8zm-18.7 67.9h13.2c19.4 0 28.5-7 28.5-21.9 0-8.1-3.8-15.1-9.6-18s-11.2-3.1-20.6-3.1H40.7zm0 67.9h16.1c11.2 0 16.5-.9 21.3-4.3s7.9-9.4 7.9-17.1-3.1-14.6-9.1-18.2-10.1-3.8-22.1-3.8H40.7zm206.9-30.2c0 32.6-26.7 58.3-60.8 58.3s-60.2-24.7-60.2-59.3 24.7-59.5 60.7-59.5 60.3 25.4 60.3 60.5zm-90.3-1c0 19.2 12 32.2 29.8 32.2s29.7-13.2 29.7-31.7c0-20.2-11.2-32.7-29.5-32.7s-30 12.8-30 32.2zm217 1c0 32.6-26.7 58.3-60.7 58.3s-60.3-24.7-60.3-59.3 24.7-59.5 60.7-59.5 60.3 25.4 60.3 60.5zm-90.3-1c0 19.2 12 32.2 29.8 32.2s29.8-13.2 29.8-31.7c0-20.2-11.3-32.7-29.6-32.7s-30 12.8-30 32.2zm128.9 55.5h-30.5V218.8h30.5v91.6l31-42.7h35.2L441.5 321l37.6 57.9h-35.2l-31-46.1z"/></symbol><symbol id="hmb-title" viewBox="0 0 558.7 429"><path d="M7 389.5h286.7v26.73H7zm33.2-316h56.1v26.9H40.2v40h56.1v26.9h-89V7.2h89v26.9H40.2zm98.1-17.3v16.3c3.1-8.1 5.3-11.5 9.9-14.9a32.1 32.1 0 0 1 18-5.2 28.8 28.8 0 0 1 3.6.2v31.2c-2.4-.2-4.8-.5-6.5-.5-8.4 0-16.1 3.9-20.4 10.1s-4.6 9.8-4.6 20.4v53.5h-30.5V56.2zm94.8 32.2v-2c0-6.7-6-11.5-14.1-11.5S206.7 79 206.7 85c0 2.9 1.2 5.8 3.1 7.2s3.6 2.6 19 7.4c25 7.7 34.8 17.6 34.8 35.6 0 21.6-17.3 36-43.2 36s-42.5-13.5-43.7-36.5H206c1.4 9.6 5.8 13.9 14.6 13.9 7.2 0 12.3-4.3 12.3-10.6s-4.3-9.8-20.7-14.8c-24-7.2-34.8-18-34.8-35.6 0-21.1 17.1-35.2 43-35.2s40.8 13.4 41.5 36zm128.2-32.2h30.5v111.1h-30.5V152c-10.3 13.2-22.3 19.2-38.7 19.2-31.2 0-53.5-24.3-53.5-58.1s23.5-60.7 55.9-60.7c15.2 0 25.5 5.2 36.3 18zm-59.5 56.4c0 19.4 12.7 34.1 29.2 34.1s30.8-15.9 30.8-35.1S349.3 78 331.3 78s-29.5 14.2-29.5 34.6zm138.7 22.1c0 5.3 1.9 6.7 8.6 7.2h5.3v25.4h-24.2c-14.9-.5-20.4-6.5-20.2-21.1V81.4h-12.7V55.7H410V25.9h30.5v29.8h13.9v25.7h-13.9zm108 6.9v25.7h-91l46.6-85.4h-42.3V56.2h90l-46.3 85.4zM40.2 285h56.1v26.9H40.2V352h56.1v26.9h-89V218.8h89v26.8H40.2zm98.1-17.3V284c3.1-8.1 5.3-11.5 9.9-14.8a31.3 31.3 0 0 1 18-5.3 28.8 28.8 0 0 1 3.6.2v31.2c-2.4-.2-4.8-.5-6.5-.5-8.4 0-16.1 3.9-20.4 10.1s-4.6 9.9-4.6 20.4v53.6h-30.5V267.7zm124.6 0h30.5v111.2h-30.5v-15.4c-10.3 13.2-22.3 19.2-38.7 19.2-31.2 0-53.5-24.3-53.5-58.1s23.5-60.7 55.9-60.7c15.2 0 25.5 5.3 36.3 18zm-59.5 56.4c0 19.5 12.7 34.1 29.2 34.1s30.8-15.8 30.8-35-12.5-33.6-30.5-33.6-29.5 14.1-29.5 34.5z"/></symbol><symbol id="home-title" viewBox="0 0 750 429"><path d="M138.7 142.3c-18.5 17.3-35.8 24.3-59.6 24.3s-43.3-8.2-57.5-24S0 105.8 0 83.7C0 34.9 33.2 0 79.6 0c24.7 0 41.6 7 60.5 25.5l-21.3 21.6c-13-11.8-24.1-16.6-37.5-16.6-28.2 0-47.9 21.7-47.9 52.4s20.7 53.2 49.5 53.2c14.7 0 26-5.1 35.9-16.4zm41.1-78.1c9.4-11.1 18.5-15.9 30.5-15.9 9.7 0 20.2 4.1 26.7 10.4s9.9 15.3 9.9 31.4v73.4h-30.6v-69c0-12.5-6.4-20.5-16.5-20.5a19.1 19.1 0 0 0-13.7 5.6c-4.8 4.5-6.3 8.9-6.3 17.5v66.4h-30.5V3.1h30.5zm107.9-12v16.3c3.2-8.2 5.3-11.5 9.9-14.9a31.6 31.6 0 0 1 18-5.3 19.3 19.3 0 0 1 3.6.3v31.2c-2.4-.2-4.8-.5-6.5-.5-8.4 0-16.1 3.9-20.4 10.1s-4.6 9.9-4.6 20.5v53.6h-30.5V52.2zm71-31.5a17 17 0 0 1-33.9-.3c0-9.8 7.2-17 17-17s16.9 7.2 16.9 17.3zM357 163.5h-30.6V52.2H357zm63.4-79.1v-1.9c0-6.8-6-11.6-14.2-11.6S394 75 394 81c0 2.9 1.2 5.8 3.1 7.2s3.6 2.7 19 7.5c25 7.7 34.9 17.5 34.9 35.6 0 21.6-17.3 36-43.3 36s-42.6-13.4-43.8-36.5h29.4c1.4 9.6 5.7 13.9 14.6 13.9 7.2 0 12.3-4.3 12.3-10.6s-4.3-9.8-20.7-14.9c-24-7.2-34.8-18-34.8-35.5 0-21.2 17-35.4 43-35.4s40.9 13.5 41.6 36.1zM7.9 214.3h45.5c25.9 0 43.5 5.3 57.7 17.8 16.3 14.4 25.2 35.3 25.2 60.5s-9.1 48.8-25.5 63.5c-13.2 12-32.4 18.5-55.5 18.5H7.9zm33 133.2h6.2c17.6 0 28.4-3.2 37.8-11.1 11.5-9.9 18-25 18-42.8 0-32-19.5-52.6-50-52.6h-12zm137.2-115.7a16.4 16.4 0 0 1-16.8 16.6c-9.9 0-17.1-7.2-17.1-16.8s7.2-17.1 17.1-17.1 16.8 7.2 16.8 17.3zm-1.7 142.8h-30.5V263.3h30.5zM319 347.5v27.1h-86.6V214.3h33v133.2zm100.7-84.2h30.5v111.3h-30.5v-15.4c-10.3 13.3-22.3 19.3-38.7 19.3-31.2 0-53.6-24.3-53.6-58.2s23.6-60.8 56-60.8c15.2 0 25.5 5.3 36.3 18zm-59.6 56.5c0 19.5 12.7 34.1 29.3 34.1s30.8-15.8 30.8-35.1-12.5-33.6-30.5-33.6-29.6 14.2-29.6 34.6zm196.4-56.5v70.4c0 16.4-3.4 25.5-12.5 33.2s-21.4 11.6-36.1 11.6-28.6-4.4-37.2-12.3-11.8-17.8-11.8-32.5v-70.4h30.5v68.5c0 12.5 7.5 20.9 18.5 20.9s18.1-7.2 18.1-19v-70.4zm39.4 0v16.4c3.1-8.2 5.3-11.6 9.9-14.9a31.6 31.6 0 0 1 18-5.3 28.8 28.8 0 0 1 3.6.2V291a57.4 57.4 0 0 0-6.5-.5c-8.4 0-16.1 3.8-20.4 10.1s-4.6 9.8-4.6 20.4v53.6h-30.5V263.3zM750 320c0 32.7-26.7 58.5-60.8 58.5s-60.4-24.8-60.4-59.4 24.8-59.6 60.9-59.6S750 284.9 750 320zm-90.4-.9c0 19.2 12 32.2 29.8 32.2s29.8-13.2 29.8-31.7c0-20.2-11.3-32.7-29.5-32.7s-30.1 12.7-30.1 32.2zm-652 70.4h736v26.73H7.6z"/></symbol><symbol id="ob-title" viewBox="0 0 833.1 429"><path d="M7 389.5h298.7v26.73H7zm349.7 0h470.8v26.73H356.7zM7.8 6.2h45.3c26 0 43.5 5.3 57.6 17.8 16.4 14.4 25.2 35.3 25.2 60.5s-9.1 48.7-25.4 63.3c-13.2 12-32.4 18.5-55.4 18.5H7.8zm32.9 133h6.2c17.5 0 28.3-3.1 37.7-11 11.5-9.9 18-25 18-42.8 0-31.9-19.5-52.5-49.9-52.5h-12zm130-21.1c2.7 15.3 14 24.9 29.1 24.9 11.3 0 20.9-5.5 25.7-14.4l28 7.7c-11 21.6-30.4 33.9-54 33.9-35.2 0-60.4-25-60.4-59.6s24.2-59.2 58.5-59.2 60.3 24.9 60.3 60.7l-.3 6zm55.7-17.5C223.8 85.9 213.2 77 198.1 77s-24.5 8.4-27.4 23.6zm91.2-13.2v-2c0-6.7-6-11.5-14.1-11.5S291.2 78 291.2 84c0 2.9 1.2 5.8 3.1 7.2s3.6 2.6 19 7.4c25 7.7 34.8 17.6 34.8 35.6 0 21.6-17.3 36-43.2 36s-42.5-13.5-43.7-36.5h29.3c1.4 9.6 5.8 13.9 14.6 13.9 7.2 0 12.3-4.3 12.3-10.6s-4.3-9.8-20.7-14.8c-24-7.2-34.8-18-34.8-35.6 0-21.1 17.1-35.2 43-35.2s40.8 13.4 41.5 36zm70.8-63.7a16.4 16.4 0 0 1-16.8 16.6c-9.8 0-17-7.2-17-16.8s7.2-17 17-17 16.8 7.2 16.8 17.2zm-1.7 142.6h-30.4V55.2h30.4zm98.2-111.1h30v103c0 22.8-4.3 36-14.9 46.3s-27.1 16.8-46.1 16.8c-21.6 0-39.3-7.2-54.4-22.1l18.9-19.2c9.9 10.6 20.4 15.4 34.3 15.4 20.4 0 32.2-12 32.2-32.9v-11.3c-10.1 12.7-23 19-39.1 19-30.5 0-52.6-24.8-52.6-58.6 0-36 22.3-60.2 55.7-60.2 15.6 0 26.4 5.2 36 17.5zm-59.3 55c0 19.2 12.5 32.8 30 32.8a30.7 30.7 0 0 0 23.1-10.3c3.6-4.3 5.7-11.3 5.7-19.7 0-12-2.6-20.1-8.1-25.9a30.9 30.9 0 0 0-20.9-8.6c-17.5 0-29.8 13.2-29.8 31.7zm130.8-55v13.7c8.2-12.7 16.3-17.5 30.2-17.5 10.6 0 20.7 3.8 27.4 10.3s9.9 16.1 9.9 34.3v70.3h-30.5V97.4c0-6.2-.8-9.8-2.7-12.9s-8.6-7.5-14.6-7.5c-11.8 0-19.7 8.9-19.7 21.9v67.4h-30.5V55.2zM40.7 377.8H7.8v-160h51.1c37.9 0 59.3 18.4 59.3 51.1s-21.9 54-57.1 54H40.7zm14.1-82c19 0 30-9.2 30-25.2s-11.3-25.7-29.3-25.7H40.7v50.9zm99.6-29.1V283c3.1-8.1 5.3-11.5 9.9-14.8a31.3 31.3 0 0 1 18-5.3 28.8 28.8 0 0 1 3.6.2v31.2c-2.4-.2-4.8-.5-6.5-.5-8.4 0-16.1 3.9-20.4 10.1s-4.6 9.9-4.6 20.4v53.5h-30.5V266.7zM308 323.4c0 32.6-26.6 58.3-60.7 58.3s-60.2-24.7-60.2-59.3 24.7-59.5 60.7-59.5 60.2 25.4 60.2 60.5zm-90.2-1c0 19.2 12 32.2 29.7 32.2s29.8-13.2 29.8-31.7c0-20.2-11.3-32.7-29.5-32.7s-30 12.8-30 32.2z"/><path d="M346.7 266.7v13.7c9.1-12.2 19.9-17.5 36.4-17.5a53.8 53.8 0 0 1 31 9.1c16.8 11.5 25.2 28.3 25.2 50.6 0 35.6-22.1 59.1-55.4 59.1-16.1 0-27.9-5.1-37.2-15.9v61.7h-30.5V266.7zm0 56.9c0 20.2 11.7 33.6 29.5 33.6s30.5-14.2 30.5-33.8-12.3-34.8-29.6-34.8-30.4 14.4-30.4 35zm219.8-.2c0 32.6-26.6 58.3-60.7 58.3s-60.3-24.7-60.3-59.3 24.8-59.5 60.8-59.5 60.2 25.4 60.2 60.5zm-90.2-1c0 19.2 12 32.2 29.7 32.2s29.8-13.2 29.8-31.7c0-20.2-11.3-32.7-29.5-32.7s-30 12.8-30 32.2zM627 298.9V297c0-6.8-6-11.6-14.2-11.6s-12.2 4.1-12.2 10.1c0 2.9 1.2 5.8 3.1 7.2s3.6 2.7 19 7.5c24.9 7.6 34.8 17.5 34.8 35.5 0 21.6-17.3 36-43.2 36s-42.5-13.5-43.7-36.5h29.3c1.4 9.6 5.7 13.9 14.6 13.9 7.2 0 12.2-4.3 12.2-10.5s-4.3-9.9-20.6-14.9c-24-7.2-34.8-18-34.8-35.5 0-21.2 17-35.3 43-35.3s40.8 13.4 41.5 36zm128.1-32.2h30.5v111.1h-30.5v-15.3c-10.3 13.2-22.3 19.2-38.6 19.2-31.2 0-53.5-24.3-53.5-58.1s23.5-60.7 55.9-60.7c15.1 0 25.4 5.3 36.2 18zm-59.5 56.4c0 19.5 12.7 34.1 29.3 34.1s30.7-15.8 30.7-35-12.5-33.6-30.5-33.6-29.5 14.1-29.5 34.5zm100.8 54.7v-160h30.5v160z"/></symbol><symbol id="rc-title" viewBox="0 0 976.1 429"><path d="M7 389.5h964.2v26.73H7zM64.4 7.2c19.7 0 32.4 2.9 40.8 9.2s15.3 19.6 15.3 33.8c0 11-3.3 20.2-10 27.4-4.6 4.5-8.2 6.7-16.8 9.6 9.6 2.1 13.9 4 18.9 8.6 7.5 6.7 11.5 16.6 11.5 28.8 0 14.9-6.2 28.1-16.5 35-8.4 5.6-18.3 7.7-35.8 7.7h-59V7.2zm-18.7 68h13.2c19.4 0 28.5-7 28.5-21.9 0-8.1-3.8-15.1-9.6-18s-11.3-3.1-20.6-3.1H45.7zm0 67.9h16c11.3 0 16.6-1 21.4-4.3s7.9-9.4 7.9-17.1-3.1-14.6-9.1-18.2-10.1-3.9-22.1-3.9H45.7zm114-86.9v16.3c3.1-8.1 5.2-11.5 9.8-14.9a32.3 32.3 0 0 1 18-5.2 28.8 28.8 0 0 1 3.6.2v31.2c-2.4-.2-4.8-.5-6.5-.5-8.4 0-16.1 3.9-20.4 10.1s-4.5 9.8-4.5 20.4v53.5h-30.5V56.2zm124.5 0h30.5v111.1h-30.5V152c-10.3 13.2-22.3 19.2-38.6 19.2-31.2 0-53.5-24.3-53.5-58.1s23.5-60.7 55.9-60.7c15.1 0 25.4 5.2 36.2 18zm-59.5 56.4c0 19.4 12.7 34.1 29.3 34.1s30.7-15.9 30.7-35.1S272.2 78 254.2 78s-29.5 14.2-29.5 34.6zM356 56.2v13.7c8.1-12.7 16.3-17.5 30.2-17.5 10.6 0 20.7 3.8 27.4 10.3s9.8 16.1 9.8 34.3v70.3h-30.5V98.4c0-6.2-.7-9.8-2.6-12.9s-8.6-7.5-14.6-7.5c-11.8 0-19.7 8.9-19.7 21.9v67.4h-30.5V56.2zm167.7-49h30.5v160.1h-30.5v-14.6c-9.6 13.2-20.1 18.5-37.2 18.5-32.8 0-54.9-23.6-54.9-58.4 0-18.7 6.2-34.3 17.7-45.1s24-15.3 37.7-15.3 25.9 4.8 36.7 16zM464 113.1c0 19.2 12.7 33.6 30 33.6s29.7-14.7 29.7-33.9S511.3 78 494.2 78 464 92.7 464 113.1zm264 54.2h-35.3l-12.2-15.6c-17.1 13.7-31 19.7-45.9 19.7-27.1 0-47-19.4-47-46.1 0-20.1 8.4-31.9 34.8-48.9-10.1-14.7-13.2-22.1-13.2-32.7 0-19.7 16.8-34.1 40.1-34.1s39.1 14.2 39.1 33.9c0 8.1-3.4 17.3-9.4 24.7-4.1 4.8-7.9 8.2-17 14.2l22.1 29.5c11.7-10.6 13.4-12.3 23.5-23.8l20.4 18c-12.7 13.9-14.7 15.9-26.9 27.4zM637.7 98c-14.9 9.6-19.9 16-19.9 25.2a20.8 20.8 0 0 0 20.4 20.6c8.4 0 16.1-4.3 24.5-13.7zm22.8-54c0-6.3-4.5-11.1-10.8-11.1A11.6 11.6 0 0 0 638 44.2c0 5.5 1.9 9.6 8.4 17.8 10.5-6.5 14.1-11.3 14.1-18zm-491 245.1v8.6c0 24.7-7.2 43.2-23.3 59.5s-36.5 24.8-59 24.8c-47.1 0-82.3-35.6-82.3-82.8s35-83.6 82-83.6c26 0 49.2 11.1 64.8 30.8L127 265.8c-11.7-13.9-23.5-19.9-39.3-19.9-28.1 0-49.5 23-49.5 53.3s22.1 53 50.2 53c13.7 0 27.3-6 35.7-16.1 4.8-5.5 7.2-10.5 9.9-20.1H89.3v-26.9zm103-21.4V338c0 16.4-3.4 25.5-12.5 33.2s-21.4 11.5-36 11.5-28.6-4.3-37.2-12.3S175 352.7 175 338v-70.3h30.5v68.4c0 12.5 7.4 20.9 18.5 20.9s18-7.2 18-19v-70.3zm41-31.4c0 9.3-7.2 16.5-16.8 16.5s-17-7.2-17-16.8 7.2-17 17-17 16.8 7.2 16.8 17.3zm-1.7 142.6h-30.5V267.7h30.5zm96.3-160.1h30.4v160.1h-30.4v-14.7c-9.6 13.2-20.2 18.5-37.2 18.5-32.9 0-55-23.5-55-58.3 0-18.8 6.2-34.4 17.8-45.2a55.5 55.5 0 0 1 37.6-15.3c15.2 0 26 4.8 36.8 16.1zm-59.8 105.8c0 19.2 12.7 33.6 30 33.6s29.8-14.6 29.8-33.8-12.5-34.8-29.6-34.8-30.2 14.6-30.2 35zm130.3 6c2.7 15.4 13.9 25 29.1 25 11.2 0 20.8-5.6 25.6-14.4l28.1 7.6c-11 21.6-30.5 33.9-54 33.9-35.3 0-60.5-25-60.5-59.5s24.3-59.3 58.6-59.3 60.2 24.9 60.2 60.7l-.2 6zm55.7-17.5c-2.6-14.7-13.2-23.5-28.3-23.5s-24.5 8.4-27.4 23.5zm37.9 65.8V218.8h30.5v160.1zm73.7-142.6c0 9.3-7.2 16.5-16.8 16.5s-17-7.2-17-16.8 7.2-17 17-17 16.8 7.2 16.8 17.3zm-1.7 142.6h-30.5V267.7h30.5zm41.5-111.2v13.7c8.2-12.7 16.4-17.5 30.3-17.5 10.5 0 20.6 3.8 27.3 10.3s9.9 16.1 9.9 34.3v70.4h-30.5V310c0-6.3-.7-9.9-2.6-13s-8.7-7.4-14.7-7.4c-11.7 0-19.7 8.8-19.7 21.8v67.5h-30.4V267.7zm107.1 62.9c2.6 15.4 13.9 25 29 25 11.3 0 20.9-5.6 25.7-14.4l28.1 7.6c-11.1 21.6-30.5 33.9-54 33.9-35.3 0-60.5-25-60.5-59.5s24.2-59.3 58.5-59.3 60.3 24.9 60.3 60.7l-.2 6zm55.7-17.5c-2.7-14.7-13.2-23.5-28.4-23.5s-24.5 8.4-27.3 23.5zm91.1-13.2V298c0-6.8-6-11.6-14.1-11.6s-12.3 4.1-12.3 10.1c0 2.9 1.2 5.8 3.2 7.2s3.6 2.7 18.9 7.5c25 7.6 34.8 17.5 34.8 35.5 0 21.6-17.3 36-43.2 36s-42.5-13.5-43.7-36.5h29.3c1.5 9.6 5.8 13.9 14.7 13.9 7.2 0 12.2-4.3 12.2-10.5s-4.3-9.9-20.6-14.9c-24-7.2-34.8-18-34.8-35.5 0-21.2 17-35.3 42.9-35.3s40.8 13.4 41.6 36z"/></symbol></svg>