<?xml version="1.0" encoding="utf-8"?>
<!-- Generator: Adobe Illustrator 22.0.1, SVG Export Plug-In . SVG Version: 6.00 Build 0)  -->
<svg version="1.1" id="Logo" xmlns="http://www.w3.org/2000/svg" xmlns:xlink="http://www.w3.org/1999/xlink" x="0px" y="0px"
	 viewBox="0 0 256 142" style="enable-background:new 0 0 256 142;" xml:space="preserve">
<style type="text/css">
	.st0{fill:#231F20;}
</style>
<title>rc-logo-only</title>
<path class="st0" d="M46.4,56.4C11.6,44.4,25.3,28.8,66.1,21c35.5-6.9,86.8-6.9,122.6,0c41.3,7.8,56,23.4,21.9,35.4
	C169.5,70.9,88.4,70.9,46.4,56.4z M159.5,43.9c15.5-4.4,12.8-10.9-4-14.6s-40-3.5-55.6,0S81,39.5,96.7,43.9S142.8,48.6,159.5,43.9z"
	/>
<path class="st0" d="M122,37.6c-3.3-0.8-3.2-2.1,0-2.9c3.9-0.8,7.8-0.8,11.7,0c3.3,0.8,3.4,2.1,0.2,2.9
	C130,38.4,125.9,38.4,122,37.6z"/>
<path class="st0" d="M150,141.4c-4.1,0.1-8.1-1.2-11.4-3.5c-4.9-3.6-7.6-9.3-7.6-16.1v-10.7c0-12.8,9.8-25.2,23.4-29.6L256,45.3v9.8
	l-98.3,36.3h-0.1c-9.2,3-16.2,11.4-16.2,19.7v10.7c0,3.4,1.2,6.1,3.3,7.7s5.9,2,9.7,0.8L256,95.7v9.8l-98.3,34.7
	C155.2,141,152.6,141.4,150,141.4z"/>
<path class="st0" d="M124.9,110.4v-4.8c0-9.5-7.1-19.4-16.2-22.5L0.5,45.9v52.6l10.8,4.3V91.9l93.9,32.4c4.8,1.6,8.9,7.3,8.9,12.3
	v0.4l10.8,3.9v-4.3c-0.1-5.2-2-10.3-5.2-14.4C123,119.5,124.8,115.2,124.9,110.4z M11.2,80.5V61l93.9,32.3c4.7,1.6,8.9,7.4,8.9,12.3
	v4.8c0.1,1.3-0.4,2.6-1.4,3.5c-0.9,0.7-2.4,0.7-4,0.2L11.2,80.5z"/>
</svg>
