<svg id="Logo" xmlns="http://www.w3.org/2000/svg" width="256" height="256" viewBox="0 0 256 256"><title>rc-logo</title><path d="M2.9,28.1H4.2v1.6h-3V23.9H0V22.3H1.2V19.7H2.9v2.6H4.2v1.6H2.9Z" fill="#231f20"/><path d="M7.5,23.4a2.5,2.5,0,0,1,2.3-1.3,2.6,2.6,0,0,1,2.1,1.1,3.9,3.9,0,0,1,.6,2.4v2.5h1v1.6H9.8V28.1h1V26a2.5,2.5,0,0,0-.3-1.5,1.5,1.5,0,0,0-1.3-.7,1.6,1.6,0,0,0-1.3.6,1.9,1.9,0,0,0-.4,1.5v2.2h1v1.6H4.8V28.1h1V21.3h-1V19.7H7.5Z" fill="#231f20"/><path d="M20.7,27.5a3.8,3.8,0,0,1-3.6,2.4A3.8,3.8,0,0,1,13.2,26a3.9,3.9,0,0,1,3.9-4,4.2,4.2,0,0,1,2.8,1.2,4.2,4.2,0,0,1,1,2.8v.6H14.8a2.3,2.3,0,0,0,2.3,1.8,1.9,1.9,0,0,0,1.8-.9Zm-1.3-2.2A2.4,2.4,0,0,0,17,23.6a2.3,2.3,0,0,0-2.2,1.7Z" fill="#231f20"/><path d="M4,35.2H1V30.9H13.1c2.7,0,5,.3,7.1,2.1a9.1,9.1,0,0,1,3.2,7.1c0,3.9-2.6,7.8-6.7,8.1l4.2,5.4H24v4.3H17.7L9.1,45.8v7.8h2.3v4.3H1V53.6H4Zm7.9,10.1a7.2,7.2,0,0,0,4.5-1.1,4.9,4.9,0,0,0,1.9-3.9,4.8,4.8,0,0,0-1.8-3.8,5.2,5.2,0,0,0-3.8-1H9.1v9.8Z" fill="#231f20"/><path d="M44.3,52a10.3,10.3,0,0,1-9.5,6.5,10.7,10.7,0,0,1-.1-21.4,11,11,0,0,1,7.6,3.3,10.5,10.5,0,0,1,2.8,7.5l-.2,1.7H28.6a6.2,6.2,0,0,0,6,4.8A5.4,5.4,0,0,0,39.5,52Zm-3.5-6a6.5,6.5,0,0,0-6.3-4.8A6.2,6.2,0,0,0,28.6,46Z" fill="#231f20"/><path d="M66.8,51.1a10.6,10.6,0,0,1-20.7-3.3c0-5.6,4.4-10.7,10.2-10.7A7.5,7.5,0,0,1,62,39.7v-2h4v6.8H61.7a5.3,5.3,0,0,0-2.2-2,5.4,5.4,0,0,0-2.8-.8,6.1,6.1,0,0,0,.1,12.2,5.2,5.2,0,0,0,4.8-2.8Z" fill="#231f20"/><path d="M68,47.8A10.6,10.6,0,1,1,78.6,58.5,10.7,10.7,0,0,1,68,47.8Zm16.7,0a6.1,6.1,0,1,0-6.1,6.1A6,6,0,0,0,84.7,47.8Z" fill="#231f20"/><path d="M96.3,41.2a6.7,6.7,0,0,1,6-3.7v4.7a6.3,6.3,0,0,0-3.9,1.5c-1.5,1.3-1.8,2.9-1.8,4.8v5.1h2.6v4.3H89.4V53.6H92V42H89.4V37.7h6.9Z" fill="#231f20"/><path d="M119.2,54.9a7.5,7.5,0,0,1-6.6,3.3,10.4,10.4,0,0,1,0-20.8,8.4,8.4,0,0,1,6.6,3.3V35.2h-2.6V30.9h7.2V53.6h2.7v4.3h-7.3Zm.1-7.1a6,6,0,0,0-6-6.1,6.2,6.2,0,0,0-.1,12.3A6.1,6.1,0,0,0,119.3,47.8Z" fill="#231f20"/><path d="M159.7,39.4a9,9,0,0,0-7.5-4.1,8.7,8.7,0,0,0-8.8,8.9,8.8,8.8,0,0,0,8.8,8.9,8.7,8.7,0,0,0,7.6-4.1h5.5a14,14,0,0,1-13.1,9.5,14.2,14.2,0,0,1-14-14.3,13.9,13.9,0,0,1,13.8-14,11.9,11.9,0,0,1,8.4,3.3V30.8h4.2v8.6Z" fill="#231f20"/><path d="M186.1,52a10.3,10.3,0,0,1-9.5,6.5,10.6,10.6,0,0,1-10.7-10.6,10.5,10.5,0,0,1,10.5-10.8,10.6,10.6,0,0,1,10.5,10.8l-.2,1.7H170.4a6.1,6.1,0,0,0,6,4.8,5.5,5.5,0,0,0,4.9-2.4Zm-3.5-6a6.5,6.5,0,0,0-6.4-4.8,6.4,6.4,0,0,0-5.9,4.8Z" fill="#231f20"/><path d="M189.9,42h-2.6V37.7h7.2v2.9a6.6,6.6,0,0,1,6-3.3,7.9,7.9,0,0,1,5.8,2.5c1.7,1.8,1.7,3.6,1.7,5.9v7.9h2.6v4.3h-9.8V53.6h2.6V47.1a5.9,5.9,0,0,0-.8-3.7,4.4,4.4,0,0,0-3.6-1.6,4.5,4.5,0,0,0-3.6,1.7c-.9,1.2-.9,2.9-.9,4.3v5.8h2.6v4.3h-9.8V53.6h2.6Z" fill="#231f20"/><path d="M216.8,53.6h3.7v4.3h-8.3V42H209V37.7h3.2V30.9h4.6v6.8h3.5V42h-3.5Z" fill="#231f20"/><path d="M229,41.2a6.7,6.7,0,0,1,6-3.7v4.7a6.3,6.3,0,0,0-3.9,1.5c-1.6,1.3-1.8,2.9-1.8,4.8v5.1h2.6v4.3h-9.8V53.6h2.6V42h-2.6V37.7H229Z" fill="#231f20"/><path d="M255.2,52a10.2,10.2,0,0,1-9.5,6.5,10.7,10.7,0,0,1-.1-21.4,11,11,0,0,1,7.6,3.3,10.5,10.5,0,0,1,2.8,7.5l-.2,1.7H239.5a6.2,6.2,0,0,0,6.1,4.8,5.4,5.4,0,0,0,4.8-2.4Zm-3.5-6a6.4,6.4,0,0,0-6.3-4.8,6.2,6.2,0,0,0-5.9,4.8Z" fill="#231f20"/><path d="M46.4,123.5C11.6,111.5,25.3,95.8,66.1,88c35.5-6.9,86.8-6.9,122.6,0,41.3,7.8,56,23.5,21.9,35.5C169.5,137.9,88.4,137.9,46.4,123.5Zm113.1-12.6c15.5-4.4,12.8-10.9-4-14.6s-40-3.5-55.6,0S81,106.5,96.7,110.9,142.8,115.6,159.5,110.9Z" fill="#231f20"/><path d="M122,104.6c-3.3-.8-3.2-2.1,0-2.9a28.8,28.8,0,0,1,11.7,0c3.3.8,3.4,2.1.2,2.9A29.8,29.8,0,0,1,122,104.6Z" fill="#231f20"/><path d="M150,208.4a19.5,19.5,0,0,1-11.4-3.5c-4.9-3.6-7.6-9.3-7.6-16.1V178.1c0-12.7,9.8-25.1,23.4-29.5L256,112.3v9.8l-98.3,36.3h-.1c-9.2,3-16.2,11.4-16.2,19.7v10.7c0,3.4,1.2,6.1,3.3,7.7s5.9,2,9.7.8L256,162.7v9.8l-98.3,34.7A25.1,25.1,0,0,1,150,208.4Z" fill="#231f20"/><path d="M124.9,177.4v-4.8c0-9.5-7.1-19.4-16.2-22.5L.5,112.9v52.6l10.8,4.3V158.9l93.9,32.4c4.8,1.6,8.9,7.3,8.9,12.3v.4l10.8,3.9v-4.3a24.4,24.4,0,0,0-5.2-14.4C123,186.5,124.8,182.3,124.9,177.4ZM11.2,147.5V128l93.9,32.3c4.7,1.7,8.9,7.4,8.9,12.3v4.8c0,1.7-.5,2.9-1.4,3.5s-2.4.7-4,.2Z" fill="#231f20"/></svg>